%TF.GenerationSoftware,tscircuit,circuit-json-to-gerber,0.0.112-board-fixes.1*%
%TF.CreationDate,2026-10-09T06:32:30.662Z*%
%TF.SameCoordinates,Original*%
%TF.FileFunction,Copper,L4,Bot*%
%TF.FilePolarity,Positive*%
%FSLAX46Y46*%
%MOMM*%
G04 Gerber Fmt 4.6, Leading zero omitted, Abs format (unit mm)*
G04 Created by tscircuit (builder) date 2026-10-09T06:32:30.662Z*
G01*
%LPD*%
G75*
G04 APERTURE MACROS START*
%AMHORZPILL*
0 Horizontal pill (stadium) shape macro*
0 Parameters:*
0 $1 = Total width*
0 $2 = Total height*
0 $3 = Circle diameter (equal to height)*
0 $4 = Circle center offset
0 21 = Center Line(Exposure, Width, Height, Center X, Center Y, Rotation)*
0 1 = Circle(Exposure, Diameter, Center X, Center Y, Rotation)*
21,1,$1-$3,$2,0.0,0.0,0.0*
1,1,$3,0.0-$4,0.0*
1,1,$3,$4,0.0*%
%AMVERTPILL*
0 Vertical pill (stadium) shape macro*
0 Parameters:*
0 $1 = Total width*
0 $2 = Total height*
0 $3 = Circle diameter (equal to width)*
0 $4 = Circle center offset
0 21 = Center Line(Exposure, Width, Height, Center X, Center Y, Rotation)*
21,1,$1,$2-$3,0.0,0.0,0.0*
1,1,$3,0.0,0.0-$4*
1,1,$3,0.0,$4*%
%AMROUNDRECT*
0 Rectangle with rounded corners*
0 $1 Corner radius*
0 $2 $3 $4 $5 $6 $7 $8 $9 X,Y Position of each corner*
0 Polygon box body*
4,1,4,$2,$3,$4,$5,$6,$7,$8,$9,$2,$3,0*
0 Circles for rounded corners*
1,1,$1+$1,$2,$3*
1,1,$1+$1,$4,$5*
1,1,$1+$1,$6,$7*
1,1,$1+$1,$8,$9*
0 Rectangles between the rounded corners*
20,1,$1+$1,$2,$3,$4,$5,0*
20,1,$1+$1,$4,$5,$6,$7,0*
20,1,$1+$1,$6,$7,$8,$9,0*
20,1,$1+$1,$8,$9,$2,$3,0*%
G04 APERTURE MACROS END*
G04 aperture START LIST*
%ADD10C,0.200000*%
%ADD11C,0.100000*%
%ADD12C,0.090000*%
%ADD13C,0.599999*%
%ADD14VERTPILL,1.199998X1.799996X1.199998X0.299999*%
%ADD15VERTPILL,1.199998X1.999996X1.199998X0.399999*%
%ADD16C,0.063000*%
%ADD17C,1.499997*%
%ADD18R,1.499997X1.499997*%
%ADD19C,0.050000*%
%ADD20R,1.499997X1.399997*%
%ADD21C,0.001000*%
%ADD22C,1.399997*%
%ADD23C,0.600000*%
%ADD24C,0.900024*%
%ADD25C,2.200000*%
%ADD26C,0.450000*%
%TD*%
G04 aperture END LIST*
D21*
G36*
X-08488116Y-28107917D02*
G01*
X-12888116Y-24607917D01*
G01*
X-12897855Y-24600364D01*
G01*
X-12907776Y-24593052D01*
G01*
X-12917875Y-24585987D01*
G01*
X-12928144Y-24579173D01*
G01*
X-12938578Y-24572613D01*
G01*
X-12949170Y-24566312D01*
G01*
X-12959914Y-24560273D01*
G01*
X-12970803Y-24554500D01*
G01*
X-12981831Y-24548997D01*
G01*
X-12992991Y-24543767D01*
G01*
X-13004276Y-24538813D01*
G01*
X-13015680Y-24534138D01*
G01*
X-13027195Y-24529745D01*
G01*
X-13038815Y-24525637D01*
G01*
X-13050532Y-24521816D01*
G01*
X-13062340Y-24518284D01*
G01*
X-13074231Y-24515043D01*
G01*
X-13086198Y-24512096D01*
G01*
X-13098234Y-24509445D01*
G01*
X-13110332Y-24507090D01*
G01*
X-13122484Y-24505033D01*
G01*
X-13134682Y-24503276D01*
G01*
X-13146921Y-24501820D01*
G01*
X-13159191Y-24500665D01*
G01*
X-13171486Y-24499812D01*
G01*
X-13183799Y-24499262D01*
G01*
X-13196121Y-24499015D01*
G01*
X-13208445Y-24499071D01*
G01*
X-13220765Y-24499430D01*
G01*
X-13233072Y-24500093D01*
G01*
X-13245358Y-24501058D01*
G01*
X-14345358Y-24601058D01*
G01*
X-14358586Y-24602437D01*
G01*
X-14371772Y-24604168D01*
G01*
X-14384908Y-24606247D01*
G01*
X-14397984Y-24608675D01*
G01*
X-14410991Y-24611449D01*
G01*
X-15660967Y-24895424D01*
G01*
X-15438985Y-25872526D01*
G01*
X-14221480Y-25595928D01*
G01*
X-13354685Y-25517128D01*
G01*
X-09111884Y-28892083D01*
G01*
X-08488116Y-28107917D01*
G37*
D21*
G36*
X-14502567Y-20859681D02*
G01*
X-14501274Y-20847675D01*
G01*
X-14500269Y-20835641D01*
G01*
X-14499556Y-20823586D01*
G01*
X-14499132Y-20811518D01*
G01*
X-14499000Y-20799443D01*
G01*
X-14499159Y-20787369D01*
G01*
X-14499609Y-20775301D01*
G01*
X-14500350Y-20763248D01*
G01*
X-14501381Y-20751217D01*
G01*
X-14502701Y-20739214D01*
G01*
X-14504311Y-20727246D01*
G01*
X-14506208Y-20715320D01*
G01*
X-14508393Y-20703444D01*
G01*
X-14510863Y-20691623D01*
G01*
X-14513617Y-20679866D01*
G01*
X-14516653Y-20668178D01*
G01*
X-15391224Y-17461418D01*
G01*
X-15102302Y-14957427D01*
G01*
X-15101002Y-14944740D01*
G01*
X-15100025Y-14932024D01*
G01*
X-15099371Y-14919287D01*
G01*
X-15099043Y-14906537D01*
G01*
X-15099039Y-14893784D01*
G01*
X-15099359Y-14881034D01*
G01*
X-15100004Y-14868297D01*
G01*
X-15100973Y-14855581D01*
G01*
X-15102265Y-14842893D01*
G01*
X-15103880Y-14830242D01*
G01*
X-15105817Y-14817636D01*
G01*
X-15205817Y-14217636D01*
G01*
X-15208134Y-14204767D01*
G01*
X-15210787Y-14191963D01*
G01*
X-15213773Y-14179233D01*
G01*
X-15217091Y-14166585D01*
G01*
X-15220737Y-14154028D01*
G01*
X-15224710Y-14141570D01*
G01*
X-15299000Y-13918699D01*
G01*
X-15299000Y-13465962D01*
G01*
X-12198091Y-09299102D01*
G01*
X-13001929Y-08700898D01*
G01*
X-16201919Y-13000898D01*
G01*
X-16209157Y-13010878D01*
G01*
X-16216146Y-13021032D01*
G01*
X-16222884Y-13031355D01*
G01*
X-16229366Y-13041841D01*
G01*
X-16235588Y-13052484D01*
G01*
X-16241546Y-13063276D01*
G01*
X-16247236Y-13074211D01*
G01*
X-16252656Y-13085283D01*
G01*
X-16257802Y-13096485D01*
G01*
X-16262671Y-13107811D01*
G01*
X-16267259Y-13119252D01*
G01*
X-16271565Y-13130804D01*
G01*
X-16275585Y-13142457D01*
G01*
X-16279317Y-13154206D01*
G01*
X-16282759Y-13166043D01*
G01*
X-16285909Y-13177962D01*
G01*
X-16288765Y-13189954D01*
G01*
X-16291324Y-13202013D01*
G01*
X-16293586Y-13214131D01*
G01*
X-16295550Y-13226301D01*
G01*
X-16297213Y-13238516D01*
G01*
X-16298575Y-13250768D01*
G01*
X-16299636Y-13263050D01*
G01*
X-16300393Y-13275354D01*
G01*
X-16300848Y-13287673D01*
G01*
X-16301000Y-13300000D01*
G01*
X-16301000Y-14000000D01*
G01*
X-16300847Y-14012399D01*
G01*
X-16300386Y-14024789D01*
G01*
X-16299620Y-14037165D01*
G01*
X-16298547Y-14049518D01*
G01*
X-16297169Y-14061841D01*
G01*
X-16295486Y-14074125D01*
G01*
X-16293500Y-14086365D01*
G01*
X-16291211Y-14098551D01*
G01*
X-16288622Y-14110677D01*
G01*
X-16285733Y-14122736D01*
G01*
X-16282547Y-14134719D01*
G01*
X-16279066Y-14146619D01*
G01*
X-16275290Y-14158430D01*
G01*
X-16187721Y-14421138D01*
G01*
X-16105791Y-14912716D01*
G01*
X-16397698Y-17442573D01*
G01*
X-16398924Y-17454444D01*
G01*
X-16399868Y-17466340D01*
G01*
X-16400528Y-17478256D01*
G01*
X-16400904Y-17490184D01*
G01*
X-16400996Y-17502117D01*
G01*
X-16400803Y-17514050D01*
G01*
X-16400326Y-17525974D01*
G01*
X-16399566Y-17537883D01*
G01*
X-16398522Y-17549771D01*
G01*
X-16397195Y-17561631D01*
G01*
X-16395586Y-17573456D01*
G01*
X-16393696Y-17585239D01*
G01*
X-16391525Y-17596974D01*
G01*
X-16389076Y-17608654D01*
G01*
X-16386349Y-17620272D01*
G01*
X-16383347Y-17631822D01*
G01*
X-15509086Y-20837446D01*
G01*
X-16047409Y-25324294D01*
G01*
X-15052543Y-25443656D01*
G01*
X-14502567Y-20859681D01*
G37*
D21*
G36*
X-08845740Y-05954261D02*
G01*
X-08836888Y-05945182D01*
G01*
X-08828268Y-05935881D01*
G01*
X-08819886Y-05926366D01*
G01*
X-08811748Y-05916641D01*
G01*
X-08803859Y-05906713D01*
G01*
X-08796223Y-05896589D01*
G01*
X-08788846Y-05886275D01*
G01*
X-08781733Y-05875778D01*
G01*
X-08774887Y-05865104D01*
G01*
X-08768314Y-05854260D01*
G01*
X-08762017Y-05843253D01*
G01*
X-08756001Y-05832090D01*
G01*
X-06456001Y-01432090D01*
G01*
X-06450541Y-01421331D01*
G01*
X-06445341Y-01410444D01*
G01*
X-06440406Y-01399434D01*
G01*
X-06435736Y-01388309D01*
G01*
X-06431336Y-01377074D01*
G01*
X-06427208Y-01365737D01*
G01*
X-06423354Y-01354304D01*
G01*
X-06419777Y-01342781D01*
G01*
X-06416478Y-01331175D01*
G01*
X-06413459Y-01319494D01*
G01*
X-06410722Y-01307743D01*
G01*
X-06408270Y-01295929D01*
G01*
X-06406102Y-01284060D01*
G01*
X-06404221Y-01272142D01*
G01*
X-06402628Y-01260183D01*
G01*
X-06401323Y-01248188D01*
G01*
X-06400307Y-01236166D01*
G01*
X-06399581Y-01224122D01*
G01*
X-06399145Y-01212065D01*
G01*
X-06399000Y-01200000D01*
G01*
X-06399000Y001300000D01*
G01*
X-06399159Y001312635D01*
G01*
X-06399637Y001325262D01*
G01*
X-06400434Y001337873D01*
G01*
X-06401548Y001350460D01*
G01*
X-06402979Y001363014D01*
G01*
X-06404726Y001375529D01*
G01*
X-06406788Y001387996D01*
G01*
X-06409164Y001400406D01*
G01*
X-06411853Y001412753D01*
G01*
X-06414852Y001425028D01*
G01*
X-06418159Y001437223D01*
G01*
X-06421773Y001449332D01*
G01*
X-06425691Y001461345D01*
G01*
X-06429911Y001473255D01*
G01*
X-06434430Y001485056D01*
G01*
X-06439245Y001496738D01*
G01*
X-06444353Y001508296D01*
G01*
X-09644353Y008508296D01*
G01*
X-10555647Y008091704D01*
G01*
X-07401000Y001190915D01*
G01*
X-07401000Y-01076955D01*
G01*
X-09608478Y-05299957D01*
G01*
X-12954270Y-08645739D01*
G01*
X-12245750Y-09354261D01*
G01*
X-08845740Y-05954261D01*
G37*
D21*
G36*
X-01794962Y-13940401D02*
G01*
X-03844962Y-09490377D01*
G01*
X-03850258Y-09479245D01*
G01*
X-03855825Y-09468246D01*
G01*
X-03861662Y-09457387D01*
G01*
X-03867764Y-09446676D01*
G01*
X-03874128Y-09436118D01*
G01*
X-03880749Y-09425719D01*
G01*
X-03887625Y-09415487D01*
G01*
X-03894750Y-09405427D01*
G01*
X-03902120Y-09395545D01*
G01*
X-03909732Y-09385848D01*
G01*
X-03917579Y-09376341D01*
G01*
X-03925659Y-09367029D01*
G01*
X-03933964Y-09357920D01*
G01*
X-03942492Y-09349017D01*
G01*
X-03951236Y-09340327D01*
G01*
X-03960191Y-09331855D01*
G01*
X-03969352Y-09323606D01*
G01*
X-03978713Y-09315584D01*
G01*
X-03988268Y-09307796D01*
G01*
X-03998013Y-09300244D01*
G01*
X-04007940Y-09292935D01*
G01*
X-04018044Y-09285872D01*
G01*
X-04028318Y-09279061D01*
G01*
X-04038757Y-09272503D01*
G01*
X-06738747Y-07622543D01*
G01*
X-06749487Y-07616163D01*
G01*
X-06760381Y-07610053D01*
G01*
X-06771425Y-07604216D01*
G01*
X-06782611Y-07598656D01*
G01*
X-06793932Y-07593377D01*
G01*
X-06805381Y-07588382D01*
G01*
X-06816952Y-07583673D01*
G01*
X-06828635Y-07579255D01*
G01*
X-06840426Y-07575129D01*
G01*
X-06852316Y-07571299D01*
G01*
X-06864297Y-07567766D01*
G01*
X-06876363Y-07564533D01*
G01*
X-06888505Y-07561601D01*
G01*
X-06900717Y-07558974D01*
G01*
X-06912991Y-07556652D01*
G01*
X-06925319Y-07554636D01*
G01*
X-06937693Y-07552928D01*
G01*
X-06950106Y-07551530D01*
G01*
X-06962550Y-07550441D01*
G01*
X-06975017Y-07549663D01*
G01*
X-06987500Y-07549196D01*
G01*
X-06999990Y-07549040D01*
G01*
X-07899990Y-07549040D01*
G01*
X-07899990Y-08551040D01*
G01*
X-07140952Y-08551040D01*
G01*
X-04691276Y-10048033D01*
G01*
X-02705038Y-14359647D01*
G01*
X-01794962Y-13940401D01*
G37*
D21*
G36*
X-07536917Y-08395263D02*
G01*
X-08263063Y-07704817D01*
G01*
X-11163073Y-10754777D01*
G01*
X-10436927Y-11445223D01*
G01*
X-07536917Y-08395263D01*
G37*
D21*
G36*
X-10599173Y-10641013D02*
G01*
X-11399183Y-10290973D01*
G01*
X-11800837Y-11208947D01*
G01*
X-11000827Y-11558987D01*
G01*
X-10599173Y-10641013D01*
G37*
D21*
G36*
X-11150764Y-01340786D02*
G01*
X-14620072Y002032153D01*
G01*
X-14795326Y003751095D01*
G01*
X-14450003Y003751095D01*
G01*
X-14450003Y004753095D01*
G01*
X-15350003Y004753095D01*
G01*
X-15362323Y004752943D01*
G01*
X-15374636Y004752489D01*
G01*
X-15386934Y004751732D01*
G01*
X-15399210Y004750673D01*
G01*
X-15411456Y004749312D01*
G01*
X-15423665Y004747650D01*
G01*
X-15435829Y004745689D01*
G01*
X-15447941Y004743429D01*
G01*
X-15459995Y004740872D01*
G01*
X-15471981Y004738019D01*
G01*
X-15483894Y004734873D01*
G01*
X-15495726Y004731434D01*
G01*
X-15507469Y004727705D01*
G01*
X-15519118Y004723689D01*
G01*
X-15530664Y004719388D01*
G01*
X-15542101Y004714804D01*
G01*
X-15553421Y004709940D01*
G01*
X-15564619Y004704799D01*
G01*
X-15575687Y004699384D01*
G01*
X-15586618Y004693699D01*
G01*
X-15597406Y004687747D01*
G01*
X-15608045Y004681531D01*
G01*
X-15618528Y004675055D01*
G01*
X-15628848Y004668324D01*
G01*
X-15638999Y004661341D01*
G01*
X-15648976Y004654110D01*
G01*
X-15658771Y004646637D01*
G01*
X-15668381Y004638924D01*
G01*
X-15677797Y004630978D01*
G01*
X-15687015Y004622802D01*
G01*
X-15696030Y004614402D01*
G01*
X-15704835Y004605783D01*
G01*
X-15713425Y004596951D01*
G01*
X-15721796Y004587909D01*
G01*
X-15729942Y004578665D01*
G01*
X-15737858Y004569222D01*
G01*
X-15745539Y004559589D01*
G01*
X-15752981Y004549769D01*
G01*
X-15760180Y004539769D01*
G01*
X-15767130Y004529595D01*
G01*
X-15773828Y004519253D01*
G01*
X-15780270Y004508750D01*
G01*
X-15786451Y004498091D01*
G01*
X-15792368Y004487284D01*
G01*
X-15798018Y004476334D01*
G01*
X-15803397Y004465249D01*
G01*
X-15808502Y004454035D01*
G01*
X-15813329Y004442698D01*
G01*
X-15817876Y004431247D01*
G01*
X-15822141Y004419687D01*
G01*
X-15826119Y004408026D01*
G01*
X-15829810Y004396270D01*
G01*
X-15833210Y004384427D01*
G01*
X-15836318Y004372504D01*
G01*
X-15839132Y004360509D01*
G01*
X-15841650Y004348447D01*
G01*
X-15843871Y004336328D01*
G01*
X-15845793Y004324157D01*
G01*
X-15847416Y004311943D01*
G01*
X-15848737Y004299693D01*
G01*
X-15849757Y004287414D01*
G01*
X-15850474Y004275113D01*
G01*
X-15850889Y004262799D01*
G01*
X-15851000Y004250478D01*
G01*
X-15850809Y004238158D01*
G01*
X-15850315Y004225847D01*
G01*
X-15849518Y004213551D01*
G01*
X-15848419Y004201279D01*
G01*
X-15598416Y001749184D01*
G01*
X-15596995Y001736778D01*
G01*
X-15595265Y001724412D01*
G01*
X-15593227Y001712093D01*
G01*
X-15590883Y001699828D01*
G01*
X-15588235Y001687626D01*
G01*
X-15585282Y001675493D01*
G01*
X-15582029Y001663438D01*
G01*
X-15578476Y001651467D01*
G01*
X-15574625Y001639589D01*
G01*
X-15570480Y001627810D01*
G01*
X-15566043Y001616138D01*
G01*
X-15561316Y001604581D01*
G01*
X-15556303Y001593145D01*
G01*
X-15551006Y001581837D01*
G01*
X-15545429Y001570665D01*
G01*
X-15539575Y001559636D01*
G01*
X-15533448Y001548756D01*
G01*
X-15527052Y001538031D01*
G01*
X-15520391Y001527470D01*
G01*
X-15513468Y001517078D01*
G01*
X-15506289Y001506861D01*
G01*
X-15498857Y001496827D01*
G01*
X-15491178Y001486981D01*
G01*
X-15483255Y001477329D01*
G01*
X-15475095Y001467878D01*
G01*
X-15466701Y001458633D01*
G01*
X-15458080Y001449601D01*
G01*
X-15449236Y001440786D01*
G01*
X-11849236Y-02059214D01*
G01*
X-11150764Y-01340786D01*
G37*
D21*
G36*
X-08614830Y-01979617D02*
G01*
X-14064833Y004572478D01*
G01*
X-14835173Y003931712D01*
G01*
X-09385170Y-02620383D01*
G01*
X-08614830Y-01979617D01*
G37*
D21*
G36*
X-05108729Y-01398254D02*
G01*
X-05106455Y-01386104D01*
G01*
X-05104480Y-01373901D01*
G01*
X-05102808Y-01361653D01*
G01*
X-05101438Y-01349367D01*
G01*
X-05100372Y-01337052D01*
G01*
X-05099610Y-01324714D01*
G01*
X-05099153Y-01312361D01*
G01*
X-05099000Y-01300000D01*
G01*
X-05099000Y001800000D01*
G01*
X-05099151Y001812295D01*
G01*
X-05099603Y001824583D01*
G01*
X-05100358Y001836856D01*
G01*
X-05101413Y001849107D01*
G01*
X-05102768Y001861329D01*
G01*
X-05104423Y001873513D01*
G01*
X-05106376Y001885653D01*
G01*
X-05108627Y001897742D01*
G01*
X-05111174Y001909771D01*
G01*
X-05114015Y001921735D01*
G01*
X-05117149Y001933625D01*
G01*
X-05120574Y001945435D01*
G01*
X-05124287Y001957157D01*
G01*
X-05128287Y001968784D01*
G01*
X-05132572Y001980310D01*
G01*
X-05137137Y001991727D01*
G01*
X-05141982Y002003029D01*
G01*
X-05147103Y002014208D01*
G01*
X-08647103Y009414208D01*
G01*
X-08652535Y009425335D01*
G01*
X-08658240Y009436323D01*
G01*
X-08664214Y009447168D01*
G01*
X-08670455Y009457861D01*
G01*
X-08676959Y009468397D01*
G01*
X-08683721Y009478770D01*
G01*
X-08690737Y009488971D01*
G01*
X-08698003Y009498997D01*
G01*
X-08705514Y009508839D01*
G01*
X-08713266Y009518494D01*
G01*
X-08721255Y009527953D01*
G01*
X-08729475Y009537212D01*
G01*
X-08737921Y009546266D01*
G01*
X-08746589Y009555108D01*
G01*
X-08755472Y009563733D01*
G01*
X-08764566Y009572135D01*
G01*
X-08773864Y009580311D01*
G01*
X-08783362Y009588254D01*
G01*
X-08793053Y009595960D01*
G01*
X-08802931Y009603424D01*
G01*
X-08812992Y009610642D01*
G01*
X-08823227Y009617609D01*
G01*
X-08833631Y009624321D01*
G01*
X-08844198Y009630774D01*
G01*
X-08854922Y009636964D01*
G01*
X-08865794Y009642887D01*
G01*
X-08876811Y009648539D01*
G01*
X-08887963Y009653918D01*
G01*
X-08899245Y009659019D01*
G01*
X-08910649Y009663840D01*
G01*
X-08922169Y009668377D01*
G01*
X-08933798Y009672629D01*
G01*
X-08945528Y009676591D01*
G01*
X-08957353Y009680263D01*
G01*
X-08969264Y009683642D01*
G01*
X-08981256Y009686725D01*
G01*
X-08993320Y009689510D01*
G01*
X-09005449Y009691997D01*
G01*
X-09017636Y009694183D01*
G01*
X-09617636Y009794183D01*
G01*
X-09629317Y009795989D01*
G01*
X-09641037Y009797518D01*
G01*
X-09652790Y009798771D01*
G01*
X-09664570Y009799746D01*
G01*
X-09676369Y009800442D01*
G01*
X-09688181Y009800861D01*
G01*
X-09700000Y009801000D01*
G01*
X-10600000Y009801000D01*
G01*
X-10612132Y009800853D01*
G01*
X-10624257Y009800412D01*
G01*
X-10636367Y009799678D01*
G01*
X-10648456Y009798651D01*
G01*
X-10660517Y009797332D01*
G01*
X-10672543Y009795720D01*
G01*
X-10684525Y009793818D01*
G01*
X-10696458Y009791627D01*
G01*
X-10708335Y009789147D01*
G01*
X-10720148Y009786380D01*
G01*
X-10731891Y009783328D01*
G01*
X-10743556Y009779992D01*
G01*
X-10755137Y009776375D01*
G01*
X-10766627Y009772479D01*
G01*
X-10778020Y009768305D01*
G01*
X-10789308Y009763857D01*
G01*
X-10800485Y009759137D01*
G01*
X-10811544Y009754148D01*
G01*
X-10822479Y009748892D01*
G01*
X-10833284Y009743373D01*
G01*
X-10843952Y009737594D01*
G01*
X-10854477Y009731558D01*
G01*
X-10864853Y009725269D01*
G01*
X-10875073Y009718731D01*
G01*
X-10885132Y009711947D01*
G01*
X-10895024Y009704922D01*
G01*
X-10904743Y009697659D01*
G01*
X-10914283Y009690163D01*
G01*
X-10923639Y009682438D01*
G01*
X-10932805Y009674489D01*
G01*
X-10941776Y009666320D01*
G01*
X-10950546Y009657937D01*
G01*
X-10959111Y009649343D01*
G01*
X-10967465Y009640545D01*
G01*
X-10975603Y009631546D01*
G01*
X-10983522Y009622354D01*
G01*
X-10991215Y009612972D01*
G01*
X-11791215Y008612972D01*
G01*
X-11799017Y008602963D01*
G01*
X-11806563Y008592758D01*
G01*
X-11813848Y008582366D01*
G01*
X-11820867Y008571793D01*
G01*
X-11827617Y008561046D01*
G01*
X-11834092Y008550131D01*
G01*
X-11840288Y008539055D01*
G01*
X-11846202Y008527826D01*
G01*
X-11851830Y008516451D01*
G01*
X-11857167Y008504937D01*
G01*
X-13157167Y005604937D01*
G01*
X-12242833Y005195063D01*
G01*
X-10968930Y008036846D01*
G01*
X-10359207Y008799000D01*
G01*
X-09741464Y008799000D01*
G01*
X-09440853Y008748898D01*
G01*
X-06101000Y001687495D01*
G01*
X-06101000Y-01250391D01*
G01*
X-06191271Y-01701746D01*
G01*
X-05208729Y-01898254D01*
G01*
X-05108729Y-01398254D01*
G37*
D21*
G36*
X-12337205Y005745515D02*
G01*
X-14337181Y007845515D01*
G01*
X-15062771Y007154485D01*
G01*
X-13062795Y005054485D01*
G01*
X-12337205Y005745515D01*
G37*
D21*
G36*
X-10629777Y009512097D02*
G01*
X-11170223Y010355853D01*
G01*
X-14970199Y007921878D01*
G01*
X-14429753Y007078122D01*
G01*
X-10629777Y009512097D01*
G37*
D21*
G36*
X-01771992Y-13999993D02*
G01*
X-03909486Y-07189813D01*
G01*
X-05803750Y006468823D01*
G01*
X-05805594Y006481015D01*
G01*
X-05807737Y006493158D01*
G01*
X-05810179Y006505244D01*
G01*
X-05812917Y006517267D01*
G01*
X-05815951Y006529218D01*
G01*
X-05819278Y006541092D01*
G01*
X-05822895Y006552880D01*
G01*
X-05826802Y006564575D01*
G01*
X-05830996Y006576170D01*
G01*
X-05835473Y006587659D01*
G01*
X-05840232Y006599035D01*
G01*
X-05845270Y006610289D01*
G01*
X-05850583Y006621416D01*
G01*
X-05856168Y006632410D01*
G01*
X-05862022Y006643262D01*
G01*
X-05868141Y006653967D01*
G01*
X-05874522Y006664518D01*
G01*
X-05881161Y006674909D01*
G01*
X-05888053Y006685133D01*
G01*
X-05895195Y006695185D01*
G01*
X-05902582Y006705058D01*
G01*
X-05910210Y006714746D01*
G01*
X-05918074Y006724243D01*
G01*
X-05926170Y006733544D01*
G01*
X-05934491Y006742643D01*
G01*
X-05943035Y006751535D01*
G01*
X-05951794Y006760213D01*
G01*
X-08951794Y009660213D01*
G01*
X-08962418Y009670189D01*
G01*
X-08973328Y009679851D01*
G01*
X-18945467Y018255890D01*
G01*
X-20099000Y019586890D01*
G01*
X-20099000Y026618613D01*
G01*
X-19844231Y026924336D01*
G01*
X-19380560Y026975855D01*
G01*
X-10550596Y018342113D01*
G01*
X000249066Y007742444D01*
G01*
X000257839Y007734040D01*
G01*
X000266814Y007725850D01*
G01*
X000275985Y007717880D01*
G01*
X000285346Y007710136D01*
G01*
X000294893Y007702620D01*
G01*
X000304619Y007695338D01*
G01*
X000314518Y007688295D01*
G01*
X000324586Y007681493D01*
G01*
X000334815Y007674938D01*
G01*
X000345201Y007668632D01*
G01*
X000355736Y007662580D01*
G01*
X000366415Y007656786D01*
G01*
X000377231Y007651252D01*
G01*
X000388179Y007645982D01*
G01*
X000399251Y007640979D01*
G01*
X000410441Y007636246D01*
G01*
X000421742Y007631785D01*
G01*
X000433148Y007627600D01*
G01*
X000444653Y007623693D01*
G01*
X000456248Y007620066D01*
G01*
X000467929Y007616721D01*
G01*
X000479687Y007613661D01*
G01*
X000491516Y007610886D01*
G01*
X000503408Y007608400D01*
G01*
X000515357Y007606202D01*
G01*
X000527357Y007604295D01*
G01*
X000539398Y007602679D01*
G01*
X000551476Y007601355D01*
G01*
X000563582Y007600325D01*
G01*
X000575709Y007599589D01*
G01*
X000587851Y007599147D01*
G01*
X000600000Y007599000D01*
G01*
X008931404Y007599000D01*
G01*
X013041731Y006451932D01*
G01*
X017249931Y002341597D01*
G01*
X017258698Y002333239D01*
G01*
X017267663Y002325095D01*
G01*
X017276823Y002317171D01*
G01*
X017286172Y002309471D01*
G01*
X017295704Y002301998D01*
G01*
X017305415Y002294759D01*
G01*
X017315297Y002287756D01*
G01*
X017325346Y002280994D01*
G01*
X017335555Y002274477D01*
G01*
X017345918Y002268209D01*
G01*
X017356431Y002262193D01*
G01*
X017367085Y002256433D01*
G01*
X017377876Y002250932D01*
G01*
X017388797Y002245694D01*
G01*
X017399841Y002240721D01*
G01*
X017411002Y002236017D01*
G01*
X017422273Y002231583D01*
G01*
X017433648Y002227424D01*
G01*
X017445121Y002223541D01*
G01*
X017456684Y002219936D01*
G01*
X017468331Y002216612D01*
G01*
X017480054Y002213570D01*
G01*
X017491848Y002210813D01*
G01*
X017503705Y002208341D01*
G01*
X017515619Y002206157D01*
G01*
X017527581Y002204262D01*
G01*
X017539586Y002202656D01*
G01*
X017551627Y002201341D01*
G01*
X017563695Y002200317D01*
G01*
X017575785Y002199586D01*
G01*
X017587889Y002199146D01*
G01*
X017600000Y002199000D01*
G01*
X018030889Y002199000D01*
G01*
X019838455Y000821807D01*
G01*
X019894847Y000483455D01*
G01*
X019813438Y-00330629D01*
G01*
X016678286Y-05218776D01*
G01*
X017521714Y-05759732D01*
G01*
X020721714Y-00770478D01*
G01*
X020728283Y-00759951D01*
G01*
X020734590Y-00749264D01*
G01*
X020740630Y-00738424D01*
G01*
X020746400Y-00727437D01*
G01*
X020751896Y-00716312D01*
G01*
X020757115Y-00705053D01*
G01*
X020762053Y-00693669D01*
G01*
X020766708Y-00682166D01*
G01*
X020771077Y-00670551D01*
G01*
X020775156Y-00658831D01*
G01*
X020778944Y-00647014D01*
G01*
X020782439Y-00635107D01*
G01*
X020785637Y-00623117D01*
G01*
X020788537Y-00611052D01*
G01*
X020791138Y-00598918D01*
G01*
X020793437Y-00586724D01*
G01*
X020795433Y-00574476D01*
G01*
X020797126Y-00562183D01*
G01*
X020798514Y-00549851D01*
G01*
X020898514Y000450149D01*
G01*
X020899569Y000462163D01*
G01*
X020900335Y000474200D01*
G01*
X020900811Y000486251D01*
G01*
X020900997Y000498311D01*
G01*
X020900893Y000510371D01*
G01*
X020900498Y000522426D01*
G01*
X020899813Y000534467D01*
G01*
X020898838Y000546489D01*
G01*
X020897575Y000558483D01*
G01*
X020896023Y000570444D01*
G01*
X020894183Y000582364D01*
G01*
X020794183Y001182364D01*
G01*
X020792032Y001194367D01*
G01*
X020789590Y001206315D01*
G01*
X020786857Y001218199D01*
G01*
X020783836Y001230013D01*
G01*
X020780529Y001241751D01*
G01*
X020776936Y001253404D01*
G01*
X020773061Y001264967D01*
G01*
X020768906Y001276432D01*
G01*
X020764473Y001287792D01*
G01*
X020759765Y001299041D01*
G01*
X020754784Y001310172D01*
G01*
X020749534Y001321178D01*
G01*
X020744018Y001332054D01*
G01*
X020738239Y001342792D01*
G01*
X020732200Y001353386D01*
G01*
X020725904Y001363830D01*
G01*
X020719357Y001374118D01*
G01*
X020712561Y001384243D01*
G01*
X020705521Y001394200D01*
G01*
X020698240Y001403983D01*
G01*
X020690724Y001413586D01*
G01*
X020682976Y001423002D01*
G01*
X020675001Y001432228D01*
G01*
X020666804Y001441256D01*
G01*
X020658390Y001450083D01*
G01*
X020649763Y001458702D01*
G01*
X020640929Y001467108D01*
G01*
X020631893Y001475297D01*
G01*
X020622661Y001483264D01*
G01*
X020613237Y001491003D01*
G01*
X020603628Y001498511D01*
G01*
X018503628Y003098511D01*
G01*
X018493931Y003105716D01*
G01*
X018484063Y003112686D01*
G01*
X018474030Y003119415D01*
G01*
X018463837Y003125900D01*
G01*
X018453491Y003132138D01*
G01*
X018442998Y003138124D01*
G01*
X018432364Y003143856D01*
G01*
X018421594Y003149330D01*
G01*
X018410695Y003154542D01*
G01*
X018399674Y003159490D01*
G01*
X018388537Y003164171D01*
G01*
X018377291Y003168582D01*
G01*
X018365941Y003172720D01*
G01*
X018354494Y003176584D01*
G01*
X018342958Y003180171D01*
G01*
X018331339Y003183478D01*
G01*
X018319643Y003186504D01*
G01*
X018307878Y003189248D01*
G01*
X018296050Y003191707D01*
G01*
X018284167Y003193880D01*
G01*
X018272234Y003195765D01*
G01*
X018260259Y003197363D01*
G01*
X018248249Y003198671D01*
G01*
X018236212Y003199690D01*
G01*
X018224153Y003200417D01*
G01*
X018212080Y003200854D01*
G01*
X018200000Y003201000D01*
G01*
X017804077Y003201000D01*
G01*
X013650069Y007258403D01*
G01*
X013640973Y007267068D01*
G01*
X013631662Y007275501D01*
G01*
X013622144Y007283698D01*
G01*
X013612422Y007291654D01*
G01*
X013602505Y007299364D01*
G01*
X013592397Y007306823D01*
G01*
X013582105Y007314026D01*
G01*
X013571636Y007320969D01*
G01*
X013560996Y007327647D01*
G01*
X013550192Y007334056D01*
G01*
X013539231Y007340193D01*
G01*
X013528120Y007346052D01*
G01*
X013516865Y007351631D01*
G01*
X013505473Y007356926D01*
G01*
X013493953Y007361934D01*
G01*
X013482310Y007366652D01*
G01*
X013470553Y007371076D01*
G01*
X013458689Y007375204D01*
G01*
X013446725Y007379033D01*
G01*
X013434668Y007382561D01*
G01*
X009134668Y008582561D01*
G01*
X009122689Y008585745D01*
G01*
X009110636Y008588632D01*
G01*
X009098514Y008591219D01*
G01*
X009086332Y008593506D01*
G01*
X009074097Y008595490D01*
G01*
X009061817Y008597172D01*
G01*
X009049499Y008598549D01*
G01*
X009037151Y008599621D01*
G01*
X009024780Y008600387D01*
G01*
X009012394Y008600847D01*
G01*
X009000000Y008601000D01*
G01*
X000804784Y008601000D01*
G01*
X-09849066Y019057556D01*
G01*
X-09849742Y019058218D01*
G01*
X-18849742Y027858218D01*
G01*
X-18858651Y027866718D01*
G01*
X-18867767Y027874996D01*
G01*
X-18877083Y027883048D01*
G01*
X-18886594Y027890868D01*
G01*
X-18896295Y027898452D01*
G01*
X-18906179Y027905796D01*
G01*
X-18916240Y027912894D01*
G01*
X-18926473Y027919743D01*
G01*
X-18936872Y027926338D01*
G01*
X-18947429Y027932676D01*
G01*
X-18958138Y027938753D01*
G01*
X-18968994Y027944564D01*
G01*
X-18979989Y027950107D01*
G01*
X-18991118Y027955378D01*
G01*
X-19002372Y027960374D01*
G01*
X-19013746Y027965092D01*
G01*
X-19025232Y027969529D01*
G01*
X-19036824Y027973682D01*
G01*
X-19048514Y027977549D01*
G01*
X-19060296Y027981128D01*
G01*
X-19072163Y027984416D01*
G01*
X-19084106Y027987411D01*
G01*
X-19096120Y027990112D01*
G01*
X-19108196Y027992517D01*
G01*
X-19120328Y027994624D01*
G01*
X-19132508Y027996433D01*
G01*
X-19144728Y027997942D01*
G01*
X-19156982Y027999150D01*
G01*
X-19169262Y028000056D01*
G01*
X-19181561Y028000661D01*
G01*
X-19193871Y028000963D01*
G01*
X-19206184Y028000962D01*
G01*
X-19218494Y028000659D01*
G01*
X-19230792Y028000053D01*
G01*
X-19243072Y027999145D01*
G01*
X-19255326Y027997936D01*
G01*
X-20155326Y027897936D01*
G01*
X-20167602Y027896418D01*
G01*
X-20179837Y027894598D01*
G01*
X-20192023Y027892476D01*
G01*
X-20204154Y027890054D01*
G01*
X-20216220Y027887333D01*
G01*
X-20228216Y027884316D01*
G01*
X-20240134Y027881003D01*
G01*
X-20251966Y027877396D01*
G01*
X-20263705Y027873499D01*
G01*
X-20275345Y027869313D01*
G01*
X-20286878Y027864841D01*
G01*
X-20298297Y027860086D01*
G01*
X-20309595Y027855050D01*
G01*
X-20320765Y027849737D01*
G01*
X-20331801Y027844150D01*
G01*
X-20342696Y027838292D01*
G01*
X-20353442Y027832167D01*
G01*
X-20364034Y027825778D01*
G01*
X-20374465Y027819130D01*
G01*
X-20384729Y027812226D01*
G01*
X-20394819Y027805071D01*
G01*
X-20404730Y027797669D01*
G01*
X-20414454Y027790025D01*
G01*
X-20423987Y027782143D01*
G01*
X-20433323Y027774028D01*
G01*
X-20442455Y027765685D01*
G01*
X-20451379Y027757119D01*
G01*
X-20460088Y027748335D01*
G01*
X-20468578Y027739339D01*
G01*
X-20476843Y027730136D01*
G01*
X-20484879Y027720732D01*
G01*
X-20984879Y027120732D01*
G01*
X-20992718Y027111085D01*
G01*
X-21000315Y027101246D01*
G01*
X-21007665Y027091222D01*
G01*
X-21014765Y027081018D01*
G01*
X-21021609Y027070642D01*
G01*
X-21028194Y027060098D01*
G01*
X-21034515Y027049395D01*
G01*
X-21040568Y027038538D01*
G01*
X-21046351Y027027534D01*
G01*
X-21051859Y027016391D01*
G01*
X-21057088Y027005114D01*
G01*
X-21062036Y026993710D01*
G01*
X-21066700Y026982188D01*
G01*
X-21071076Y026970553D01*
G01*
X-21075162Y026958813D01*
G01*
X-21078956Y026946976D01*
G01*
X-21082455Y026935048D01*
G01*
X-21085657Y026923037D01*
G01*
X-21088560Y026910950D01*
G01*
X-21091162Y026898795D01*
G01*
X-21093462Y026886579D01*
G01*
X-21095458Y026874310D01*
G01*
X-21097150Y026861995D01*
G01*
X-21098535Y026849642D01*
G01*
X-21099613Y026837258D01*
G01*
X-21100383Y026824852D01*
G01*
X-21100846Y026812430D01*
G01*
X-21101000Y026800000D01*
G01*
X-21101000Y019400000D01*
G01*
X-21100848Y019387665D01*
G01*
X-21100393Y019375337D01*
G01*
X-21099634Y019363024D01*
G01*
X-21098572Y019350734D01*
G01*
X-21097208Y019338473D01*
G01*
X-21095542Y019326250D01*
G01*
X-21093576Y019314071D01*
G01*
X-21091311Y019301945D01*
G01*
X-21088747Y019289878D01*
G01*
X-21085888Y019277878D01*
G01*
X-21082734Y019265951D01*
G01*
X-21079287Y019254106D01*
G01*
X-21075550Y019242350D01*
G01*
X-21071524Y019230689D01*
G01*
X-21067212Y019219131D01*
G01*
X-21062617Y019207682D01*
G01*
X-21057742Y019196350D01*
G01*
X-21052589Y019185142D01*
G01*
X-21047162Y019174064D01*
G01*
X-21041464Y019163122D01*
G01*
X-21035497Y019152325D01*
G01*
X-21029267Y019141677D01*
G01*
X-21022777Y019131187D01*
G01*
X-21016030Y019120859D01*
G01*
X-21009031Y019110700D01*
G01*
X-21001784Y019100717D01*
G01*
X-20994294Y019090915D01*
G01*
X-20986564Y019081301D01*
G01*
X-20978600Y019071880D01*
G01*
X-19678600Y017571880D01*
G01*
X-19670480Y017562738D01*
G01*
X-19662140Y017553798D01*
G01*
X-19653583Y017545064D01*
G01*
X-19644816Y017536541D01*
G01*
X-19635844Y017528234D01*
G01*
X-19626672Y017520149D01*
G01*
X-09637725Y008929655D01*
G01*
X-06772502Y006159940D01*
G01*
X-04896250Y-07368823D01*
G01*
X-04894475Y-07380594D01*
G01*
X-04892421Y-07392319D01*
G01*
X-04890088Y-07403992D01*
G01*
X-04887479Y-07415606D01*
G01*
X-04884595Y-07427155D01*
G01*
X-04881438Y-07438632D01*
G01*
X-04878008Y-07450031D01*
G01*
X-02728008Y-14300055D01*
G01*
X-01771992Y-13999993D01*
G37*
D21*
G36*
X-09009614Y-01585994D02*
G01*
X-12709614Y003014006D01*
G01*
X-12715729Y003021460D01*
G01*
X-12721985Y003028795D01*
G01*
X-14071988Y004580890D01*
G01*
X-14828018Y003923300D01*
G01*
X-13484343Y002378481D01*
G01*
X-09790386Y-02214006D01*
G01*
X-09009614Y-01585994D01*
G37*
D21*
G36*
X-05151892Y-01724054D02*
G01*
X-05146558Y-01713053D01*
G01*
X-05141495Y-01701926D01*
G01*
X-05136704Y-01690678D01*
G01*
X-05132190Y-01679317D01*
G01*
X-05127954Y-01667849D01*
G01*
X-05123999Y-01656281D01*
G01*
X-05120327Y-01644620D01*
G01*
X-05116941Y-01632873D01*
G01*
X-05113843Y-01621047D01*
G01*
X-05111034Y-01609148D01*
G01*
X-05108516Y-01597185D01*
G01*
X-05106291Y-01585164D01*
G01*
X-05104360Y-01573092D01*
G01*
X-05102725Y-01560977D01*
G01*
X-05101385Y-01548825D01*
G01*
X-05100342Y-01536644D01*
G01*
X-05099597Y-01524442D01*
G01*
X-05099149Y-01512224D01*
G01*
X-05099000Y-01500000D01*
G01*
X-05099000Y001800000D01*
G01*
X-05099151Y001812295D01*
G01*
X-05099603Y001824583D01*
G01*
X-05100358Y001836856D01*
G01*
X-05101413Y001849107D01*
G01*
X-05102768Y001861329D01*
G01*
X-05104423Y001873513D01*
G01*
X-05106376Y001885653D01*
G01*
X-05108627Y001897742D01*
G01*
X-05111174Y001909771D01*
G01*
X-05114015Y001921735D01*
G01*
X-05117149Y001933625D01*
G01*
X-05120574Y001945435D01*
G01*
X-05124287Y001957157D01*
G01*
X-05128287Y001968784D01*
G01*
X-05132572Y001980310D01*
G01*
X-05137137Y001991727D01*
G01*
X-05141982Y002003029D01*
G01*
X-05147103Y002014208D01*
G01*
X-08647103Y009414208D01*
G01*
X-08652535Y009425335D01*
G01*
X-08658240Y009436323D01*
G01*
X-08664214Y009447168D01*
G01*
X-08670455Y009457861D01*
G01*
X-08676959Y009468397D01*
G01*
X-08683721Y009478770D01*
G01*
X-08690737Y009488971D01*
G01*
X-08698003Y009498997D01*
G01*
X-08705514Y009508839D01*
G01*
X-08713266Y009518494D01*
G01*
X-08721255Y009527953D01*
G01*
X-08729475Y009537212D01*
G01*
X-08737921Y009546266D01*
G01*
X-08746589Y009555108D01*
G01*
X-08755472Y009563733D01*
G01*
X-08764566Y009572135D01*
G01*
X-08773864Y009580311D01*
G01*
X-08783362Y009588254D01*
G01*
X-08793053Y009595960D01*
G01*
X-08802931Y009603424D01*
G01*
X-08812992Y009610642D01*
G01*
X-08823227Y009617609D01*
G01*
X-08833631Y009624321D01*
G01*
X-08844198Y009630774D01*
G01*
X-08854922Y009636964D01*
G01*
X-08865794Y009642887D01*
G01*
X-08876811Y009648539D01*
G01*
X-08887963Y009653918D01*
G01*
X-08899245Y009659019D01*
G01*
X-08910649Y009663840D01*
G01*
X-08922169Y009668377D01*
G01*
X-08933798Y009672629D01*
G01*
X-08945528Y009676591D01*
G01*
X-08957353Y009680263D01*
G01*
X-08969264Y009683642D01*
G01*
X-08981256Y009686725D01*
G01*
X-08993320Y009689510D01*
G01*
X-09005449Y009691997D01*
G01*
X-09017636Y009694183D01*
G01*
X-09617636Y009794183D01*
G01*
X-09629317Y009795989D01*
G01*
X-09641037Y009797518D01*
G01*
X-09652790Y009798771D01*
G01*
X-09664570Y009799746D01*
G01*
X-09676369Y009800442D01*
G01*
X-09688181Y009800861D01*
G01*
X-09700000Y009801000D01*
G01*
X-10600000Y009801000D01*
G01*
X-10612219Y009800851D01*
G01*
X-10624431Y009800404D01*
G01*
X-10636629Y009799659D01*
G01*
X-10648804Y009798617D01*
G01*
X-10660951Y009797279D01*
G01*
X-10673061Y009795644D01*
G01*
X-10685128Y009793715D01*
G01*
X-10697144Y009791492D01*
G01*
X-10709103Y009788976D01*
G01*
X-10720996Y009786170D01*
G01*
X-10732818Y009783074D01*
G01*
X-10744560Y009779691D01*
G01*
X-10756217Y009776022D01*
G01*
X-10767780Y009772071D01*
G01*
X-10779244Y009767838D01*
G01*
X-10790601Y009763327D01*
G01*
X-10801845Y009758541D01*
G01*
X-10812968Y009753482D01*
G01*
X-10823965Y009748152D01*
G01*
X-10834829Y009742557D01*
G01*
X-10845553Y009736698D01*
G01*
X-10856131Y009730579D01*
G01*
X-10866556Y009724204D01*
G01*
X-10876823Y009717576D01*
G01*
X-10886925Y009710700D01*
G01*
X-10896857Y009703580D01*
G01*
X-10906612Y009696220D01*
G01*
X-10916184Y009688624D01*
G01*
X-10925568Y009680797D01*
G01*
X-10934759Y009672743D01*
G01*
X-10943751Y009664467D01*
G01*
X-10952538Y009655975D01*
G01*
X-10961115Y009647271D01*
G01*
X-10969477Y009638360D01*
G01*
X-10977620Y009629248D01*
G01*
X-10985538Y009619940D01*
G01*
X-10993226Y009610442D01*
G01*
X-12493226Y007710442D01*
G01*
X-12500789Y007700615D01*
G01*
X-12508106Y007690604D01*
G01*
X-12515173Y007680414D01*
G01*
X-12521986Y007670053D01*
G01*
X-12528540Y007659527D01*
G01*
X-12534832Y007648842D01*
G01*
X-12540857Y007638004D01*
G01*
X-12546613Y007627020D01*
G01*
X-12552094Y007615897D01*
G01*
X-12557299Y007604642D01*
G01*
X-12562224Y007593262D01*
G01*
X-12566865Y007581763D01*
G01*
X-12571221Y007570153D01*
G01*
X-12575287Y007558439D01*
G01*
X-12579063Y007546627D01*
G01*
X-12582545Y007534726D01*
G01*
X-12585732Y007522743D01*
G01*
X-12588621Y007510684D01*
G01*
X-12591210Y007498557D01*
G01*
X-12593499Y007486370D01*
G01*
X-12595485Y007474130D01*
G01*
X-12597168Y007461844D01*
G01*
X-12598547Y007449521D01*
G01*
X-12599619Y007437167D01*
G01*
X-12600386Y007424791D01*
G01*
X-12600847Y007412399D01*
G01*
X-12601000Y007400000D01*
G01*
X-12601000Y005600000D01*
G01*
X-11599000Y005600000D01*
G01*
X-11599000Y007226072D01*
G01*
X-10357214Y008799000D01*
G01*
X-09741464Y008799000D01*
G01*
X-09440853Y008748898D01*
G01*
X-06101000Y001687495D01*
G01*
X-06101000Y-01381730D01*
G01*
X-06448108Y-02075946D01*
G01*
X-05551892Y-02524054D01*
G01*
X-05151892Y-01724054D01*
G37*
D21*
G36*
X018274708Y-03326554D02*
G01*
X017315292Y-03037548D01*
G01*
X016620292Y-05344751D01*
G01*
X017579708Y-05633757D01*
G01*
X018274708Y-03326554D01*
G37*
D21*
G36*
X-01794996Y-13940328D02*
G01*
X-04444996Y-08190304D01*
G01*
X-04450436Y-08178881D01*
G01*
X-04456163Y-08167600D01*
G01*
X-04462173Y-08156467D01*
G01*
X-04468462Y-08145490D01*
G01*
X-04475026Y-08134674D01*
G01*
X-04481861Y-08124028D01*
G01*
X-04488962Y-08113558D01*
G01*
X-04496326Y-08103270D01*
G01*
X-04503948Y-08093172D01*
G01*
X-04511821Y-08083269D01*
G01*
X-04519943Y-08073569D01*
G01*
X-04528306Y-08064076D01*
G01*
X-04536907Y-08054798D01*
G01*
X-04545740Y-08045740D01*
G01*
X-07345740Y-05245740D01*
G01*
X-08054260Y-05954260D01*
G01*
X-05317544Y-08690977D01*
G01*
X-02705004Y-14359720D01*
G01*
X-01794996Y-13940328D01*
G37*
D21*
G36*
X-06887799Y-32000851D02*
G01*
X-06875605Y-32000406D01*
G01*
X-06863426Y-31999663D01*
G01*
X-06851269Y-31998624D01*
G01*
X-06839140Y-31997290D01*
G01*
X-06827047Y-31995660D01*
G01*
X-06814998Y-31993736D01*
G01*
X-06802999Y-31991520D01*
G01*
X-06791058Y-31989012D01*
G01*
X-06779181Y-31986214D01*
G01*
X-06767376Y-31983127D01*
G01*
X-06755650Y-31979754D01*
G01*
X-06744009Y-31976096D01*
G01*
X-06732461Y-31972156D01*
G01*
X-06721012Y-31967936D01*
G01*
X-06709669Y-31963439D01*
G01*
X-06698440Y-31958666D01*
G01*
X-06687329Y-31953621D01*
G01*
X-06676345Y-31948308D01*
G01*
X-06665494Y-31942728D01*
G01*
X-06654782Y-31936886D01*
G01*
X-06644215Y-31930784D01*
G01*
X-06633800Y-31924427D01*
G01*
X-06623543Y-31917818D01*
G01*
X-06613449Y-31910962D01*
G01*
X-06603526Y-31903862D01*
G01*
X-06593779Y-31896522D01*
G01*
X-06584213Y-31888947D01*
G01*
X-06574835Y-31881141D01*
G01*
X-06565649Y-31873109D01*
G01*
X-06556662Y-31864856D01*
G01*
X-06547878Y-31856386D01*
G01*
X-06539303Y-31847705D01*
G01*
X-06530943Y-31838818D01*
G01*
X-06522801Y-31829730D01*
G01*
X-06514883Y-31820446D01*
G01*
X-06507193Y-31810972D01*
G01*
X-04691055Y-29516904D01*
G01*
X-02016808Y-28466306D01*
G01*
X-02005514Y-28461710D01*
G01*
X-01994336Y-28456840D01*
G01*
X-01983279Y-28451700D01*
G01*
X-01972351Y-28446292D01*
G01*
X-01961557Y-28440620D01*
G01*
X-01950905Y-28434687D01*
G01*
X-01940400Y-28428496D01*
G01*
X-01930049Y-28422052D01*
G01*
X-01919858Y-28415357D01*
G01*
X-01909833Y-28408416D01*
G01*
X-01899979Y-28401234D01*
G01*
X-01890304Y-28393814D01*
G01*
X-01880812Y-28386160D01*
G01*
X-01871509Y-28378278D01*
G01*
X-01862400Y-28370172D01*
G01*
X-01853492Y-28361847D01*
G01*
X-01844788Y-28353307D01*
G01*
X-01836296Y-28344558D01*
G01*
X-01828018Y-28335605D01*
G01*
X-01819961Y-28326453D01*
G01*
X-01812129Y-28317107D01*
G01*
X-01804527Y-28307574D01*
G01*
X-01797159Y-28297859D01*
G01*
X-01790029Y-28287967D01*
G01*
X-01783143Y-28277905D01*
G01*
X-01383143Y-27677905D01*
G01*
X-01376460Y-27667609D01*
G01*
X-01370031Y-27657153D01*
G01*
X-01363861Y-27646543D01*
G01*
X-01357952Y-27635785D01*
G01*
X-01352308Y-27624885D01*
G01*
X-01346933Y-27613850D01*
G01*
X-01341831Y-27602686D01*
G01*
X-01337003Y-27591402D01*
G01*
X-01332453Y-27580002D01*
G01*
X-01328184Y-27568494D01*
G01*
X-01324197Y-27556885D01*
G01*
X-01320497Y-27545182D01*
G01*
X-01317084Y-27533392D01*
G01*
X-01313961Y-27521521D01*
G01*
X-01311130Y-27509578D01*
G01*
X-01308593Y-27497569D01*
G01*
X-01306350Y-27485501D01*
G01*
X-01304403Y-27473382D01*
G01*
X-01302754Y-27461219D01*
G01*
X-01301404Y-27449020D01*
G01*
X-01300353Y-27436791D01*
G01*
X-01299601Y-27424539D01*
G01*
X-01299150Y-27412273D01*
G01*
X-01299000Y-27400000D01*
G01*
X-01299000Y-26700000D01*
G01*
X-01299151Y-26687689D01*
G01*
X-01299605Y-26675384D01*
G01*
X-01300361Y-26663095D01*
G01*
X-01301419Y-26650828D01*
G01*
X-01302778Y-26638591D01*
G01*
X-01304437Y-26626391D01*
G01*
X-01306395Y-26614235D01*
G01*
X-01308652Y-26602132D01*
G01*
X-01311205Y-26590087D01*
G01*
X-01314054Y-26578108D01*
G01*
X-01317196Y-26566204D01*
G01*
X-01320630Y-26554380D01*
G01*
X-01324353Y-26542644D01*
G01*
X-01328364Y-26531003D01*
G01*
X-01332659Y-26519464D01*
G01*
X-01337236Y-26508034D01*
G01*
X-01342094Y-26496720D01*
G01*
X-01347227Y-26485529D01*
G01*
X-01352634Y-26474468D01*
G01*
X-01358312Y-26463542D01*
G01*
X-01364256Y-26452760D01*
G01*
X-01370463Y-26442126D01*
G01*
X-01376929Y-26431649D01*
G01*
X-01383652Y-26421333D01*
G01*
X-01390625Y-26411186D01*
G01*
X-01397846Y-26401214D01*
G01*
X-01405310Y-26391421D01*
G01*
X-03555310Y-23641445D01*
G01*
X-04344690Y-24258603D01*
G01*
X-02301000Y-26872602D01*
G01*
X-02301000Y-27248309D01*
G01*
X-02529601Y-27591212D01*
G01*
X-05183192Y-28633694D01*
G01*
X-05194831Y-28638435D01*
G01*
X-05206348Y-28643468D01*
G01*
X-05217735Y-28648788D01*
G01*
X-05228984Y-28654391D01*
G01*
X-05240090Y-28660275D01*
G01*
X-05251045Y-28666436D01*
G01*
X-05261841Y-28672870D01*
G01*
X-05272473Y-28679572D01*
G01*
X-05282934Y-28686539D01*
G01*
X-05293216Y-28693767D01*
G01*
X-05303314Y-28701250D01*
G01*
X-05313221Y-28708983D01*
G01*
X-05322930Y-28716963D01*
G01*
X-05332437Y-28725184D01*
G01*
X-05341734Y-28733641D01*
G01*
X-05350816Y-28742329D01*
G01*
X-05359678Y-28751241D01*
G01*
X-05368313Y-28760373D01*
G01*
X-05376717Y-28769719D01*
G01*
X-05384883Y-28779272D01*
G01*
X-05392807Y-28789028D01*
G01*
X-07142368Y-30999000D01*
G01*
X-07501123Y-30999000D01*
G01*
X-12923623Y-28771902D01*
G01*
X-16337145Y-25548020D01*
G01*
X-16799000Y-23054002D01*
G01*
X-16799000Y-18600000D01*
G01*
X-16799145Y-18587965D01*
G01*
X-16799578Y-18575937D01*
G01*
X-16800301Y-18563923D01*
G01*
X-16801311Y-18551930D01*
G01*
X-16802610Y-18539965D01*
G01*
X-16804196Y-18528034D01*
G01*
X-16806068Y-18516145D01*
G01*
X-16808224Y-18504304D01*
G01*
X-16810665Y-18492518D01*
G01*
X-16813388Y-18480795D01*
G01*
X-16816392Y-18469140D01*
G01*
X-16819675Y-18457561D01*
G01*
X-16823235Y-18446064D01*
G01*
X-16827071Y-18434656D01*
G01*
X-16831179Y-18423343D01*
G01*
X-19399000Y-11608741D01*
G01*
X-19399000Y-11096484D01*
G01*
X-19295023Y-10836541D01*
G01*
X-10431939Y-05223254D01*
G01*
X-10968061Y-04376746D01*
G01*
X-19968061Y-10076746D01*
G01*
X-19978570Y-10083587D01*
G01*
X-19988904Y-10090689D01*
G01*
X-19999057Y-10098047D01*
G01*
X-20009022Y-10105657D01*
G01*
X-20018794Y-10113514D01*
G01*
X-20028367Y-10121614D01*
G01*
X-20037734Y-10129950D01*
G01*
X-20046889Y-10138518D01*
G01*
X-20055827Y-10147313D01*
G01*
X-20064542Y-10156328D01*
G01*
X-20073028Y-10165559D01*
G01*
X-20081281Y-10174999D01*
G01*
X-20089295Y-10184643D01*
G01*
X-20097066Y-10194484D01*
G01*
X-20104587Y-10204517D01*
G01*
X-20111855Y-10214735D01*
G01*
X-20118865Y-10225131D01*
G01*
X-20125613Y-10235700D01*
G01*
X-20132094Y-10246434D01*
G01*
X-20138305Y-10257327D01*
G01*
X-20144241Y-10268372D01*
G01*
X-20149898Y-10279563D01*
G01*
X-20155274Y-10290891D01*
G01*
X-20160365Y-10302350D01*
G01*
X-20165167Y-10313933D01*
G01*
X-20365167Y-10813933D01*
G01*
X-20369460Y-10825047D01*
G01*
X-20373487Y-10836260D01*
G01*
X-20377247Y-10847566D01*
G01*
X-20380737Y-10858958D01*
G01*
X-20383955Y-10870429D01*
G01*
X-20386899Y-10881974D01*
G01*
X-20389568Y-10893585D01*
G01*
X-20391960Y-10905257D01*
G01*
X-20394074Y-10916982D01*
G01*
X-20395908Y-10928755D01*
G01*
X-20397462Y-10940567D01*
G01*
X-20398735Y-10952413D01*
G01*
X-20399725Y-10964286D01*
G01*
X-20400433Y-10976180D01*
G01*
X-20400858Y-10988087D01*
G01*
X-20401000Y-11000000D01*
G01*
X-20401000Y-11700000D01*
G01*
X-20400855Y-11712035D01*
G01*
X-20400422Y-11724063D01*
G01*
X-20399699Y-11736077D01*
G01*
X-20398689Y-11748070D01*
G01*
X-20397390Y-11760035D01*
G01*
X-20395804Y-11771966D01*
G01*
X-20393932Y-11783855D01*
G01*
X-20391776Y-11795696D01*
G01*
X-20389335Y-11807482D01*
G01*
X-20386612Y-11819205D01*
G01*
X-20383608Y-11830860D01*
G01*
X-20380325Y-11842439D01*
G01*
X-20376765Y-11853936D01*
G01*
X-20372929Y-11865344D01*
G01*
X-20368821Y-11876657D01*
G01*
X-17801000Y-18691259D01*
G01*
X-17801000Y-23100000D01*
G01*
X-17800829Y-23113104D01*
G01*
X-17800315Y-23126199D01*
G01*
X-17799458Y-23139276D01*
G01*
X-17798260Y-23152326D01*
G01*
X-17796721Y-23165341D01*
G01*
X-17794842Y-23178311D01*
G01*
X-17792624Y-23191227D01*
G01*
X-17292624Y-25891227D01*
G01*
X-17290266Y-25903151D01*
G01*
X-17287619Y-25915016D01*
G01*
X-17284685Y-25926812D01*
G01*
X-17281466Y-25938534D01*
G01*
X-17277963Y-25950174D01*
G01*
X-17274179Y-25961725D01*
G01*
X-17270116Y-25973182D01*
G01*
X-17265776Y-25984536D01*
G01*
X-17261162Y-25995782D01*
G01*
X-17256276Y-26006913D01*
G01*
X-17251122Y-26017922D01*
G01*
X-17245702Y-26028803D01*
G01*
X-17240020Y-26039548D01*
G01*
X-17234079Y-26050153D01*
G01*
X-17227882Y-26060611D01*
G01*
X-17221433Y-26070915D01*
G01*
X-17214737Y-26081060D01*
G01*
X-17207796Y-26091039D01*
G01*
X-17200615Y-26100847D01*
G01*
X-17193198Y-26110478D01*
G01*
X-17185550Y-26119926D01*
G01*
X-17177674Y-26129185D01*
G01*
X-17169577Y-26138251D01*
G01*
X-17161262Y-26147118D01*
G01*
X-17152734Y-26155781D01*
G01*
X-17143998Y-26164234D01*
G01*
X-13543998Y-29564234D01*
G01*
X-13534982Y-29572543D01*
G01*
X-13525764Y-29580629D01*
G01*
X-13516352Y-29588488D01*
G01*
X-13506750Y-29596113D01*
G01*
X-13496964Y-29603502D01*
G01*
X-13487000Y-29610648D01*
G01*
X-13476864Y-29617549D01*
G01*
X-13466563Y-29624199D01*
G01*
X-13456102Y-29630596D01*
G01*
X-13445487Y-29636734D01*
G01*
X-13434726Y-29642611D01*
G01*
X-13423824Y-29648223D01*
G01*
X-13412787Y-29653566D01*
G01*
X-13401624Y-29658638D01*
G01*
X-13390339Y-29663435D01*
G01*
X-07790339Y-31963435D01*
G01*
X-07778996Y-31967933D01*
G01*
X-07767547Y-31972154D01*
G01*
X-07755998Y-31976094D01*
G01*
X-07744357Y-31979752D01*
G01*
X-07732630Y-31983126D01*
G01*
X-07720825Y-31986212D01*
G01*
X-07708947Y-31989011D01*
G01*
X-07697005Y-31991519D01*
G01*
X-07685006Y-31993736D01*
G01*
X-07672956Y-31995660D01*
G01*
X-07660863Y-31997289D01*
G01*
X-07648734Y-31998624D01*
G01*
X-07636576Y-31999663D01*
G01*
X-07624396Y-32000406D01*
G01*
X-07612202Y-32000851D01*
G01*
X-07600000Y-32001000D01*
G01*
X-06900000Y-32001000D01*
G01*
X-06887799Y-32000851D01*
G37*
D21*
G36*
X004238120Y-24720627D02*
G01*
X003038120Y-21120627D01*
G01*
X003036112Y-21114840D01*
G01*
X003033964Y-21109105D01*
G01*
X003031676Y-21103423D01*
G01*
X003029251Y-21097799D01*
G01*
X003026689Y-21092235D01*
G01*
X003023992Y-21086736D01*
G01*
X003021161Y-21081305D01*
G01*
X003018199Y-21075944D01*
G01*
X003015107Y-21070656D01*
G01*
X003011887Y-21065446D01*
G01*
X003008541Y-21060316D01*
G01*
X003005071Y-21055269D01*
G01*
X003001478Y-21050309D01*
G01*
X002997766Y-21045437D01*
G01*
X002993936Y-21040658D01*
G01*
X002989990Y-21035973D01*
G01*
X002985931Y-21031386D01*
G01*
X002981762Y-21026900D01*
G01*
X002977484Y-21022516D01*
G01*
X002077484Y-20122516D01*
G01*
X001722516Y-20477484D01*
G01*
X002580618Y-21335586D01*
G01*
X003761880Y-24879373D01*
G01*
X004238120Y-24720627D01*
G37*
D21*
G36*
X001636136Y-16714906D02*
G01*
X-02349000Y-05656155D01*
G01*
X-02349000Y-02400000D01*
G01*
X-02349073Y-02393938D01*
G01*
X-02349293Y-02387880D01*
G01*
X-02349659Y-02381830D01*
G01*
X-02350170Y-02375789D01*
G01*
X-02350828Y-02369763D01*
G01*
X-02351631Y-02363754D01*
G01*
X-02352579Y-02357767D01*
G01*
X-02353671Y-02351804D01*
G01*
X-02354906Y-02345869D01*
G01*
X-02356285Y-02339966D01*
G01*
X-02357806Y-02334098D01*
G01*
X-02359468Y-02328269D01*
G01*
X-02361271Y-02322481D01*
G01*
X-02363212Y-02316738D01*
G01*
X-02365292Y-02311044D01*
G01*
X-02367509Y-02305402D01*
G01*
X-02369861Y-02299815D01*
G01*
X-02372348Y-02294286D01*
G01*
X-02374967Y-02288820D01*
G01*
X-02377717Y-02283418D01*
G01*
X-02380598Y-02278084D01*
G01*
X-02383606Y-02272821D01*
G01*
X-02386740Y-02267632D01*
G01*
X-04157497Y000585253D01*
G01*
X-04550824Y003830203D01*
G01*
X-04552009Y003838749D01*
G01*
X-05052009Y007038749D01*
G01*
X-05053062Y007044973D01*
G01*
X-05054271Y007051168D01*
G01*
X-05055635Y007057332D01*
G01*
X-05057154Y007063459D01*
G01*
X-05058827Y007069546D01*
G01*
X-05060652Y007075588D01*
G01*
X-05062629Y007081584D01*
G01*
X-05064755Y007087527D01*
G01*
X-05067031Y007093415D01*
G01*
X-05069454Y007099244D01*
G01*
X-05072022Y007105010D01*
G01*
X-05074735Y007110710D01*
G01*
X-05077591Y007116340D01*
G01*
X-05080587Y007121896D01*
G01*
X-09056103Y014277825D01*
G01*
X-09150535Y015127718D01*
G01*
X-09151290Y015133831D01*
G01*
X-09152196Y015139924D01*
G01*
X-09153250Y015145993D01*
G01*
X-09154453Y015152034D01*
G01*
X-09155803Y015158043D01*
G01*
X-09157301Y015164018D01*
G01*
X-09158945Y015169954D01*
G01*
X-09160734Y015175848D01*
G01*
X-09162668Y015181696D01*
G01*
X-09164744Y015187495D01*
G01*
X-09166961Y015193242D01*
G01*
X-09169320Y015198932D01*
G01*
X-09171817Y015204563D01*
G01*
X-09174451Y015210131D01*
G01*
X-09177222Y015215632D01*
G01*
X-09180126Y015221064D01*
G01*
X-09183163Y015226423D01*
G01*
X-09186330Y015231705D01*
G01*
X-09189626Y015236909D01*
G01*
X-09193049Y015242030D01*
G01*
X-09196597Y015247065D01*
G01*
X-09200267Y015252012D01*
G01*
X-09204057Y015256867D01*
G01*
X-09207965Y015261628D01*
G01*
X-09211989Y015266292D01*
G01*
X-09216126Y015270855D01*
G01*
X-09220374Y015275315D01*
G01*
X-09224730Y015279670D01*
G01*
X-09229192Y015283917D01*
G01*
X-09233756Y015288053D01*
G01*
X-09238421Y015292076D01*
G01*
X-09243182Y015295983D01*
G01*
X-09248039Y015299772D01*
G01*
X-09252986Y015303440D01*
G01*
X-09258023Y015306987D01*
G01*
X-09263145Y015310408D01*
G01*
X-09268349Y015313703D01*
G01*
X-09273632Y015316869D01*
G01*
X-09278992Y015319905D01*
G01*
X-09284424Y015322808D01*
G01*
X-09289927Y015325577D01*
G01*
X-09295495Y015328210D01*
G01*
X-09301126Y015330705D01*
G01*
X-10001126Y015630705D01*
G01*
X-10006742Y015633032D01*
G01*
X-10012412Y015635222D01*
G01*
X-10018133Y015637274D01*
G01*
X-10023902Y015639186D01*
G01*
X-10029716Y015640959D01*
G01*
X-10035572Y015642590D01*
G01*
X-10041465Y015644079D01*
G01*
X-10047392Y015645425D01*
G01*
X-10053350Y015646627D01*
G01*
X-10059336Y015647684D01*
G01*
X-10065345Y015648596D01*
G01*
X-10071375Y015649362D01*
G01*
X-10077422Y015649982D01*
G01*
X-10083481Y015650456D01*
G01*
X-10089551Y015650782D01*
G01*
X-14814904Y015847672D01*
G01*
X-15454109Y016304247D01*
G01*
X-15745891Y015895753D01*
G01*
X-15045891Y015395753D01*
G01*
X-15040925Y015392295D01*
G01*
X-15035877Y015388959D01*
G01*
X-15030750Y015385744D01*
G01*
X-15025547Y015382655D01*
G01*
X-15020271Y015379691D01*
G01*
X-15014925Y015376856D01*
G01*
X-15009513Y015374151D01*
G01*
X-15004037Y015371576D01*
G01*
X-14998500Y015369135D01*
G01*
X-14992906Y015366827D01*
G01*
X-14987258Y015364655D01*
G01*
X-14981559Y015362620D01*
G01*
X-14975813Y015360723D01*
G01*
X-14970023Y015358965D01*
G01*
X-14964192Y015357347D01*
G01*
X-14958324Y015355870D01*
G01*
X-14952422Y015354535D01*
G01*
X-14946490Y015353343D01*
G01*
X-14940530Y015352294D01*
G01*
X-14934547Y015351389D01*
G01*
X-14928544Y015350628D01*
G01*
X-14922524Y015350013D01*
G01*
X-14916492Y015349542D01*
G01*
X-14910449Y015349218D01*
G01*
X-10156505Y015151137D01*
G01*
X-09633313Y014926911D01*
G01*
X-09549465Y014172282D01*
G01*
X-09548702Y014166110D01*
G01*
X-09547786Y014159959D01*
G01*
X-09546717Y014153832D01*
G01*
X-09545498Y014147734D01*
G01*
X-09544128Y014141667D01*
G01*
X-09542608Y014135637D01*
G01*
X-09540938Y014129646D01*
G01*
X-09539121Y014123699D01*
G01*
X-09537158Y014117798D01*
G01*
X-09535048Y014111947D01*
G01*
X-09532795Y014106151D01*
G01*
X-09530398Y014100412D01*
G01*
X-09527860Y014094735D01*
G01*
X-09525182Y014089122D01*
G01*
X-09522366Y014083577D01*
G01*
X-09519413Y014078104D01*
G01*
X-05541098Y006917136D01*
G01*
X-05048657Y003765514D01*
G01*
X-04649176Y000469797D01*
G01*
X-04648374Y000463786D01*
G01*
X-04647427Y000457797D01*
G01*
X-04646335Y000451832D01*
G01*
X-04645099Y000445895D01*
G01*
X-04643721Y000439990D01*
G01*
X-04642200Y000434120D01*
G01*
X-04640538Y000428289D01*
G01*
X-04638735Y000422499D01*
G01*
X-04636793Y000416754D01*
G01*
X-04634713Y000411058D01*
G01*
X-04632496Y000405414D01*
G01*
X-04630144Y000399825D01*
G01*
X-04627656Y000394295D01*
G01*
X-04625037Y000388826D01*
G01*
X-04622285Y000383423D01*
G01*
X-04619404Y000378087D01*
G01*
X-04616395Y000372822D01*
G01*
X-04613260Y000367632D01*
G01*
X-02851000Y-02471564D01*
G01*
X-02851000Y-05700000D01*
G01*
X-02850923Y-05706200D01*
G01*
X-02850694Y-05712397D01*
G01*
X-02850311Y-05718586D01*
G01*
X-02849775Y-05724764D01*
G01*
X-02849087Y-05730926D01*
G01*
X-02848247Y-05737070D01*
G01*
X-02847256Y-05743191D01*
G01*
X-02846114Y-05749286D01*
G01*
X-02844821Y-05755351D01*
G01*
X-02843379Y-05761381D01*
G01*
X-02841788Y-05767375D01*
G01*
X-02840050Y-05773327D01*
G01*
X-02838166Y-05779235D01*
G01*
X-02836136Y-05785094D01*
G01*
X001163864Y-16885094D01*
G01*
X001636136Y-16714906D01*
G37*
D21*
G36*
X-14652819Y010843620D02*
G01*
X-14952819Y012543620D01*
G01*
X-14953977Y012549738D01*
G01*
X-14955287Y012555825D01*
G01*
X-14956747Y012561878D01*
G01*
X-14958357Y012567893D01*
G01*
X-14960115Y012573866D01*
G01*
X-14962021Y012579794D01*
G01*
X-14964074Y012585672D01*
G01*
X-14966271Y012591498D01*
G01*
X-14968613Y012597267D01*
G01*
X-14971097Y012602977D01*
G01*
X-14973721Y012608623D01*
G01*
X-14976485Y012614202D01*
G01*
X-14979387Y012619712D01*
G01*
X-14982424Y012625147D01*
G01*
X-14985595Y012630505D01*
G01*
X-14988899Y012635784D01*
G01*
X-14992332Y012640978D01*
G01*
X-14995892Y012646086D01*
G01*
X-14999579Y012651104D01*
G01*
X-15003389Y012656029D01*
G01*
X-15007319Y012660858D01*
G01*
X-15011369Y012665588D01*
G01*
X-15015534Y012670216D01*
G01*
X-15019813Y012674739D01*
G01*
X-15024203Y012679155D01*
G01*
X-15028701Y012683460D01*
G01*
X-15033304Y012687653D01*
G01*
X-15038010Y012691730D01*
G01*
X-15042816Y012695689D01*
G01*
X-15047718Y012699528D01*
G01*
X-15052715Y012703244D01*
G01*
X-15057801Y012706835D01*
G01*
X-18257801Y014906835D01*
G01*
X-18542199Y014493165D01*
G01*
X-15428897Y012352770D01*
G01*
X-15147181Y010756380D01*
G01*
X-14652819Y010843620D01*
G37*
D21*
G36*
X-01687475Y026300804D02*
G01*
X-04887475Y026400804D01*
G01*
X-04912525Y025599196D01*
G01*
X-01712525Y025499196D01*
G01*
X-01687475Y026300804D01*
G37*
D21*
G36*
X004606668Y024886546D02*
G01*
X-00646672Y026336546D01*
G01*
X-00860056Y025563454D01*
G01*
X004393284Y024113454D01*
G01*
X004606668Y024886546D01*
G37*
D21*
G36*
X008261264Y023680790D02*
G01*
X004625664Y024880793D01*
G01*
X004374288Y024119207D01*
G01*
X008009888Y022919204D01*
G01*
X008261264Y023680790D01*
G37*
D21*
G36*
X014270665Y020855683D02*
G01*
X008306340Y023662820D01*
G01*
X007964812Y022937174D01*
G01*
X013929137Y020130037D01*
G01*
X014270665Y020855683D01*
G37*
D21*
G36*
X014600803Y017312566D02*
G01*
X014500704Y020505426D01*
G01*
X013699098Y020480294D01*
G01*
X013799197Y017287434D01*
G01*
X014600803Y017312566D01*
G37*
D21*
G36*
X013490568Y014789720D02*
G01*
X014564535Y017132921D01*
G01*
X013835465Y017467079D01*
G01*
X012735465Y015067079D01*
G01*
X012731595Y015058364D01*
G01*
X012727934Y015049559D01*
G01*
X012724483Y015040670D01*
G01*
X012721244Y015031701D01*
G01*
X012718220Y015022658D01*
G01*
X012715411Y015013545D01*
G01*
X012712820Y015004369D01*
G01*
X012710448Y014995133D01*
G01*
X012708296Y014985843D01*
G01*
X012706366Y014976505D01*
G01*
X012704658Y014967124D01*
G01*
X012703174Y014957705D01*
G01*
X012701914Y014948253D01*
G01*
X012301914Y011648253D01*
G01*
X013098086Y011551747D01*
G01*
X013490568Y014789720D01*
G37*
D21*
G36*
X012989517Y011322546D02*
G01*
X012410483Y011877454D01*
G01*
X010110483Y009477454D01*
G01*
X010689517Y008922546D01*
G01*
X012989517Y011322546D01*
G37*
D21*
G36*
X018073823Y-06761368D02*
G01*
X018082477Y-06757076D01*
G01*
X018091026Y-06752576D01*
G01*
X018099464Y-06747872D01*
G01*
X018107787Y-06742966D01*
G01*
X018115988Y-06737861D01*
G01*
X018124065Y-06732560D01*
G01*
X018132011Y-06727066D01*
G01*
X018139822Y-06721382D01*
G01*
X018147495Y-06715511D01*
G01*
X018155024Y-06709458D01*
G01*
X018162404Y-06703224D01*
G01*
X018169633Y-06696815D01*
G01*
X018176705Y-06690233D01*
G01*
X018183616Y-06683483D01*
G01*
X018190363Y-06676569D01*
G01*
X018196941Y-06669494D01*
G01*
X018203347Y-06662262D01*
G01*
X018209577Y-06654879D01*
G01*
X018215627Y-06647347D01*
G01*
X018221494Y-06639672D01*
G01*
X018227174Y-06631858D01*
G01*
X018232665Y-06623909D01*
G01*
X021732665Y-01423909D01*
G01*
X021737986Y-01415792D01*
G01*
X021743110Y-01407549D01*
G01*
X021748032Y-01399185D01*
G01*
X021752751Y-01390703D01*
G01*
X021757263Y-01382110D01*
G01*
X021761566Y-01373411D01*
G01*
X021765657Y-01364609D01*
G01*
X021769533Y-01355712D01*
G01*
X021773194Y-01346723D01*
G01*
X021776635Y-01337648D01*
G01*
X021779856Y-01328492D01*
G01*
X021782855Y-01319262D01*
G01*
X021785629Y-01309961D01*
G01*
X021788177Y-01300596D01*
G01*
X021790498Y-01291172D01*
G01*
X021792590Y-01281695D01*
G01*
X021794452Y-01272169D01*
G01*
X021796083Y-01262602D01*
G01*
X021797482Y-01252998D01*
G01*
X021997482Y000247002D01*
G01*
X021998607Y000256261D01*
G01*
X021999517Y000265542D01*
G01*
X022000210Y000274843D01*
G01*
X022000687Y000284157D01*
G01*
X022000947Y000293480D01*
G01*
X022000990Y000302806D01*
G01*
X022000816Y000312131D01*
G01*
X022000426Y000321449D01*
G01*
X021999819Y000330755D01*
G01*
X021899819Y001630755D01*
G01*
X021898942Y001640574D01*
G01*
X021897824Y001650367D01*
G01*
X021896466Y001660131D01*
G01*
X021894868Y001669858D01*
G01*
X021893032Y001679543D01*
G01*
X021890958Y001689179D01*
G01*
X021888648Y001698762D01*
G01*
X021886103Y001708285D01*
G01*
X021883324Y001717743D01*
G01*
X021880314Y001727130D01*
G01*
X021877075Y001736439D01*
G01*
X021873607Y001745667D01*
G01*
X021869914Y001754806D01*
G01*
X021865997Y001763852D01*
G01*
X021861859Y001772799D01*
G01*
X021857502Y001781641D01*
G01*
X021852929Y001790373D01*
G01*
X021848143Y001798991D01*
G01*
X021843147Y001807488D01*
G01*
X021837943Y001815860D01*
G01*
X021832535Y001824102D01*
G01*
X021826926Y001832208D01*
G01*
X021821120Y001840173D01*
G01*
X021815119Y001847994D01*
G01*
X021808928Y001855665D01*
G01*
X017008928Y007655665D01*
G01*
X017002428Y007663322D01*
G01*
X016995738Y007670814D01*
G01*
X016988862Y007678136D01*
G01*
X016981806Y007685283D01*
G01*
X016974572Y007692252D01*
G01*
X016967166Y007699037D01*
G01*
X016959593Y007705634D01*
G01*
X016951857Y007712040D01*
G01*
X016943963Y007718250D01*
G01*
X016935915Y007724261D01*
G01*
X016927720Y007730068D01*
G01*
X016919382Y007735668D01*
G01*
X016910906Y007741057D01*
G01*
X016902298Y007746232D01*
G01*
X016893563Y007751190D01*
G01*
X016884706Y007755928D01*
G01*
X016875734Y007760442D01*
G01*
X016866651Y007764731D01*
G01*
X016857464Y007768790D01*
G01*
X016848178Y007772618D01*
G01*
X016838799Y007776213D01*
G01*
X016829333Y007779571D01*
G01*
X016819786Y007782691D01*
G01*
X016810163Y007785571D01*
G01*
X010510163Y009585571D01*
G01*
X010289837Y008814429D01*
G01*
X016470321Y007048576D01*
G01*
X021109941Y001442369D01*
G01*
X021196950Y000311244D01*
G01*
X021014923Y-01053961D01*
G01*
X017628103Y-06085807D01*
G01*
X009826177Y-09838632D01*
G01*
X010173823Y-10561368D01*
G01*
X018073823Y-06761368D01*
G37*
D21*
G36*
X008431494Y-08074361D02*
G01*
X000331494Y003825639D01*
G01*
X000325410Y003834328D01*
G01*
X000319098Y003842853D01*
G01*
X000312563Y003851208D01*
G01*
X000305809Y003859387D01*
G01*
X000298842Y003867385D01*
G01*
X-01352210Y005712677D01*
G01*
X-01715752Y006656180D01*
G01*
X-01400000Y006656180D01*
G01*
X-01400000Y007458180D01*
G01*
X-02300000Y007458180D01*
G01*
X-02309839Y007458059D01*
G01*
X-02319672Y007457697D01*
G01*
X-02329494Y007457094D01*
G01*
X-02339297Y007456250D01*
G01*
X-02349077Y007455165D01*
G01*
X-02358828Y007453841D01*
G01*
X-02368543Y007452279D01*
G01*
X-02378216Y007450478D01*
G01*
X-02387843Y007448440D01*
G01*
X-02397417Y007446167D01*
G01*
X-02406932Y007443660D01*
G01*
X-02416382Y007440920D01*
G01*
X-02425763Y007437949D01*
G01*
X-02435068Y007434748D01*
G01*
X-02444291Y007431320D01*
G01*
X-02453428Y007427667D01*
G01*
X-02462472Y007423791D01*
G01*
X-02471419Y007419694D01*
G01*
X-02480262Y007415379D01*
G01*
X-02488997Y007410848D01*
G01*
X-02497617Y007406105D01*
G01*
X-02506119Y007401151D01*
G01*
X-02514497Y007395990D01*
G01*
X-02522746Y007390625D01*
G01*
X-02530860Y007385059D01*
G01*
X-02538836Y007379296D01*
G01*
X-02546667Y007373339D01*
G01*
X-02554351Y007367191D01*
G01*
X-02561881Y007360857D01*
G01*
X-02569253Y007354340D01*
G01*
X-02576463Y007347644D01*
G01*
X-02583507Y007340773D01*
G01*
X-02590380Y007333731D01*
G01*
X-02597078Y007326523D01*
G01*
X-02603597Y007319153D01*
G01*
X-02609934Y007311625D01*
G01*
X-02616084Y007303943D01*
G01*
X-02622043Y007296114D01*
G01*
X-02627809Y007288140D01*
G01*
X-02633377Y007280027D01*
G01*
X-02638745Y007271780D01*
G01*
X-02643908Y007263404D01*
G01*
X-02648865Y007254903D01*
G01*
X-02653611Y007246284D01*
G01*
X-02658144Y007237551D01*
G01*
X-02662462Y007228709D01*
G01*
X-02666562Y007219764D01*
G01*
X-02670441Y007210720D01*
G01*
X-02674097Y007201585D01*
G01*
X-02677527Y007192362D01*
G01*
X-02680730Y007183059D01*
G01*
X-02683704Y007173679D01*
G01*
X-02686447Y007164229D01*
G01*
X-02688958Y007154715D01*
G01*
X-02691234Y007145142D01*
G01*
X-02693274Y007135516D01*
G01*
X-02695078Y007125843D01*
G01*
X-02696644Y007116128D01*
G01*
X-02697971Y007106378D01*
G01*
X-02699058Y007096599D01*
G01*
X-02699905Y007086795D01*
G01*
X-02700511Y007076974D01*
G01*
X-02700876Y007067141D01*
G01*
X-02701000Y007057302D01*
G01*
X-02700882Y007047463D01*
G01*
X-02700523Y007037629D01*
G01*
X-02699923Y007027808D01*
G01*
X-02699082Y007018004D01*
G01*
X-02698000Y007008224D01*
G01*
X-02696679Y006998473D01*
G01*
X-02695119Y006988757D01*
G01*
X-02693322Y006979083D01*
G01*
X-02691287Y006969456D01*
G01*
X-02689017Y006959882D01*
G01*
X-02686512Y006950366D01*
G01*
X-02683775Y006940914D01*
G01*
X-02680807Y006931533D01*
G01*
X-02677609Y006922227D01*
G01*
X-02674184Y006913002D01*
G01*
X-02074184Y005355822D01*
G01*
X-02070595Y005346832D01*
G01*
X-02066790Y005337931D01*
G01*
X-02062771Y005329124D01*
G01*
X-02058540Y005320417D01*
G01*
X-02054101Y005311815D01*
G01*
X-02049455Y005303322D01*
G01*
X-02044605Y005294944D01*
G01*
X-02039555Y005286685D01*
G01*
X-02034307Y005278551D01*
G01*
X-02028864Y005270545D01*
G01*
X-02023229Y005262674D01*
G01*
X-02017406Y005254941D01*
G01*
X-02011399Y005247350D01*
G01*
X-02005209Y005239907D01*
G01*
X-01998842Y005232615D01*
G01*
X-00316550Y003352407D01*
G01*
X007768506Y-08525639D01*
G01*
X008431494Y-08074361D01*
G37*
D21*
G36*
X-01111894Y007336099D02*
G01*
X-02411894Y008678919D01*
G01*
X-02988106Y008121081D01*
G01*
X-01688106Y006778261D01*
G01*
X-01111894Y007336099D01*
G37*
D21*
G36*
X021377792Y030169717D02*
G01*
X020721224Y030630283D01*
G01*
X013771617Y020723143D01*
G01*
X014428185Y020262577D01*
G01*
X021377792Y030169717D01*
G37*
D21*
G36*
X008841354Y-09289576D02*
G01*
X004341354Y-01989576D01*
G01*
X004336475Y-01981858D01*
G01*
X004331421Y-01974254D01*
G01*
X004326195Y-01966767D01*
G01*
X004320800Y-01959400D01*
G01*
X-00765056Y004821742D01*
G01*
X-02553220Y007901356D01*
G01*
X-03246780Y007498644D01*
G01*
X-01446780Y004398644D01*
G01*
X-01441956Y004390555D01*
G01*
X-01436943Y004382582D01*
G01*
X-01431744Y004374729D01*
G01*
X-01426362Y004367000D01*
G01*
X-01420800Y004359400D01*
G01*
X003668235Y-02425980D01*
G01*
X008158646Y-09710424D01*
G01*
X008841354Y-09289576D01*
G37*
D21*
G36*
X018382646Y-06556990D02*
G01*
X018391502Y-06552318D01*
G01*
X018400239Y-06547427D01*
G01*
X018408851Y-06542319D01*
G01*
X018417332Y-06536998D01*
G01*
X018425679Y-06531467D01*
G01*
X018433884Y-06525729D01*
G01*
X018441944Y-06519788D01*
G01*
X018449853Y-06513647D01*
G01*
X018457606Y-06507311D01*
G01*
X018465198Y-06500784D01*
G01*
X018472625Y-06494069D01*
G01*
X018479882Y-06487170D01*
G01*
X018486965Y-06480093D01*
G01*
X018493869Y-06472841D01*
G01*
X018500589Y-06465419D01*
G01*
X018507123Y-06457831D01*
G01*
X018513464Y-06450082D01*
G01*
X018519610Y-06442178D01*
G01*
X018525557Y-06434123D01*
G01*
X018531301Y-06425921D01*
G01*
X018536839Y-06417579D01*
G01*
X018542166Y-06409101D01*
G01*
X021842166Y-01009101D01*
G01*
X021847184Y-01000660D01*
G01*
X021851993Y-00992098D01*
G01*
X021856592Y-00983421D01*
G01*
X021860976Y-00974634D01*
G01*
X021865144Y-00965743D01*
G01*
X021869093Y-00956752D01*
G01*
X021872821Y-00947667D01*
G01*
X021876325Y-00938493D01*
G01*
X021879604Y-00929236D01*
G01*
X021882655Y-00919902D01*
G01*
X021885476Y-00910496D01*
G01*
X021888066Y-00901024D01*
G01*
X021890423Y-00891491D01*
G01*
X021892547Y-00881903D01*
G01*
X021894435Y-00872266D01*
G01*
X021896086Y-00862586D01*
G01*
X021897500Y-00852868D01*
G01*
X021898675Y-00843118D01*
G01*
X021899611Y-00833343D01*
G01*
X021900308Y-00823548D01*
G01*
X022000308Y000876452D01*
G01*
X022000775Y000886555D01*
G01*
X022000986Y000896666D01*
G01*
X022000943Y000906779D01*
G01*
X022000644Y000916887D01*
G01*
X022000091Y000926985D01*
G01*
X021999283Y000937066D01*
G01*
X021998222Y000947124D01*
G01*
X021996907Y000957151D01*
G01*
X021995339Y000967142D01*
G01*
X021993520Y000977090D01*
G01*
X021991451Y000986989D01*
G01*
X021791451Y001886989D01*
G01*
X021789196Y001896580D01*
G01*
X021786706Y001906112D01*
G01*
X021783982Y001915581D01*
G01*
X021781026Y001924979D01*
G01*
X021777841Y001934302D01*
G01*
X021774428Y001943545D01*
G01*
X021770788Y001952700D01*
G01*
X021766925Y001961763D01*
G01*
X021762840Y001970729D01*
G01*
X021758536Y001979591D01*
G01*
X021754015Y001988346D01*
G01*
X021749281Y001996986D01*
G01*
X021744337Y002005507D01*
G01*
X021739184Y002013905D01*
G01*
X021733826Y002022173D01*
G01*
X021728267Y002030308D01*
G01*
X021722510Y002038303D01*
G01*
X021716558Y002046154D01*
G01*
X021710415Y002053857D01*
G01*
X021704085Y002061406D01*
G01*
X016804085Y007761406D01*
G01*
X016797505Y007768871D01*
G01*
X016790742Y007776170D01*
G01*
X016783800Y007783299D01*
G01*
X016776684Y007790254D01*
G01*
X016769396Y007797030D01*
G01*
X016761943Y007803623D01*
G01*
X016754329Y007810029D01*
G01*
X016746558Y007816244D01*
G01*
X016738636Y007822264D01*
G01*
X016730566Y007828086D01*
G01*
X016722354Y007833706D01*
G01*
X016714006Y007839120D01*
G01*
X016705525Y007844326D01*
G01*
X016696919Y007849319D01*
G01*
X016688190Y007854098D01*
G01*
X016679346Y007858658D01*
G01*
X016670392Y007862998D01*
G01*
X016661333Y007867114D01*
G01*
X-05638667Y017667114D01*
G01*
X-05647656Y017670934D01*
G01*
X-05656735Y017674534D01*
G01*
X-05665899Y017677912D01*
G01*
X-05675142Y017681066D01*
G01*
X-05684459Y017683994D01*
G01*
X-05693845Y017686694D01*
G01*
X-05703294Y017689165D01*
G01*
X-05712801Y017691404D01*
G01*
X-05722359Y017693412D01*
G01*
X-05731963Y017695186D01*
G01*
X-05741607Y017696726D01*
G01*
X-05751286Y017698030D01*
G01*
X-05760994Y017699098D01*
G01*
X-05770726Y017699930D01*
G01*
X-05780474Y017700524D01*
G01*
X-05790234Y017700881D01*
G01*
X-05800000Y017701000D01*
G01*
X-06800000Y017701000D01*
G01*
X-06800000Y016899000D01*
G01*
X-05884225Y016899000D01*
G01*
X016255287Y007169528D01*
G01*
X021030363Y001614848D01*
G01*
X021196405Y000867661D01*
G01*
X021105577Y-00676410D01*
G01*
X017916757Y-05894479D01*
G01*
X009417354Y-10243010D01*
G01*
X009782646Y-10956990D01*
G01*
X018382646Y-06556990D01*
G37*
D21*
G36*
X-18919578Y014773193D02*
G01*
X-19680422Y015026807D01*
G01*
X-20480422Y012626807D01*
G01*
X-19719578Y012373193D01*
G01*
X-18919578Y014773193D01*
G37*
D21*
G36*
X-20505292Y000572991D02*
G01*
X-20899314Y010515879D01*
G01*
X-21700686Y010484121D01*
G01*
X-21306664Y000541233D01*
G01*
X-20505292Y000572991D01*
G37*
D21*
G36*
X-19716450Y-06716450D02*
G01*
X-21210781Y-05222119D01*
G01*
X-23499000Y-02743215D01*
G01*
X-23499000Y000534927D01*
G01*
X-23360814Y000949486D01*
G01*
X-22897661Y001280309D01*
G01*
X-22458157Y001217523D01*
G01*
X-21146190Y000236022D01*
G01*
X-20665766Y000878202D01*
G01*
X-22059788Y001921090D01*
G01*
X-22067896Y001926999D01*
G01*
X-22076149Y001932704D01*
G01*
X-22084542Y001938200D01*
G01*
X-22093070Y001943484D01*
G01*
X-22101728Y001948553D01*
G01*
X-22110510Y001953404D01*
G01*
X-22119411Y001958034D01*
G01*
X-22128424Y001962440D01*
G01*
X-22137545Y001966619D01*
G01*
X-22146768Y001970568D01*
G01*
X-22156086Y001974286D01*
G01*
X-22165495Y001977769D01*
G01*
X-22174988Y001981016D01*
G01*
X-22184559Y001984024D01*
G01*
X-22194202Y001986792D01*
G01*
X-22203912Y001989317D01*
G01*
X-22213681Y001991599D01*
G01*
X-22223505Y001993636D01*
G01*
X-22233377Y001995427D01*
G01*
X-22243290Y001996970D01*
G01*
X-22943290Y002096970D01*
G01*
X-22953066Y002098244D01*
G01*
X-22962870Y002099277D01*
G01*
X-22972697Y002100069D01*
G01*
X-22982540Y002100620D01*
G01*
X-22992393Y002100928D01*
G01*
X-23002252Y002100994D01*
G01*
X-23012109Y002100817D01*
G01*
X-23021958Y002100398D01*
G01*
X-23031794Y002099738D01*
G01*
X-23041612Y002098835D01*
G01*
X-23051404Y002097692D01*
G01*
X-23061164Y002096308D01*
G01*
X-23070888Y002094684D01*
G01*
X-23080569Y002092823D01*
G01*
X-23090202Y002090723D01*
G01*
X-23099780Y002088388D01*
G01*
X-23109297Y002085817D01*
G01*
X-23118749Y002083014D01*
G01*
X-23128128Y002079979D01*
G01*
X-23137431Y002076715D01*
G01*
X-23146650Y002073222D01*
G01*
X-23155780Y002069504D01*
G01*
X-23164817Y002065563D01*
G01*
X-23173754Y002061401D01*
G01*
X-23182585Y002057020D01*
G01*
X-23191307Y002052424D01*
G01*
X-23199913Y002047615D01*
G01*
X-23208398Y002042595D01*
G01*
X-23216757Y002037369D01*
G01*
X-23224985Y002031938D01*
G01*
X-23233077Y002026307D01*
G01*
X-23933077Y001526307D01*
G01*
X-23940899Y001520575D01*
G01*
X-23948581Y001514656D01*
G01*
X-23956117Y001508553D01*
G01*
X-23963504Y001502269D01*
G01*
X-23970736Y001495809D01*
G01*
X-23977810Y001489175D01*
G01*
X-23984722Y001482373D01*
G01*
X-23991467Y001475405D01*
G01*
X-23998042Y001468276D01*
G01*
X-24004442Y001460990D01*
G01*
X-24010664Y001453552D01*
G01*
X-24016705Y001445965D01*
G01*
X-24022560Y001438235D01*
G01*
X-24028227Y001430365D01*
G01*
X-24033702Y001422360D01*
G01*
X-24038981Y001414226D01*
G01*
X-24044063Y001405966D01*
G01*
X-24048943Y001397585D01*
G01*
X-24053619Y001389090D01*
G01*
X-24058088Y001380483D01*
G01*
X-24062348Y001371771D01*
G01*
X-24066395Y001362958D01*
G01*
X-24070229Y001354050D01*
G01*
X-24073846Y001345052D01*
G01*
X-24077244Y001335970D01*
G01*
X-24080422Y001326807D01*
G01*
X-24280422Y000726807D01*
G01*
X-24283444Y000717354D01*
G01*
X-24286230Y000707829D01*
G01*
X-24288781Y000698238D01*
G01*
X-24291093Y000688586D01*
G01*
X-24293165Y000678880D01*
G01*
X-24294997Y000669126D01*
G01*
X-24296587Y000659330D01*
G01*
X-24297933Y000649497D01*
G01*
X-24299036Y000639634D01*
G01*
X-24299895Y000629747D01*
G01*
X-24300509Y000619841D01*
G01*
X-24300877Y000609924D01*
G01*
X-24301000Y000600000D01*
G01*
X-24301000Y-02900000D01*
G01*
X-24300876Y-02909963D01*
G01*
X-24300505Y-02919919D01*
G01*
X-24299886Y-02929864D01*
G01*
X-24299021Y-02939790D01*
G01*
X-24297909Y-02949691D01*
G01*
X-24296552Y-02959561D01*
G01*
X-24294950Y-02969395D01*
G01*
X-24293104Y-02979186D01*
G01*
X-24291015Y-02988928D01*
G01*
X-24288685Y-02998616D01*
G01*
X-24286115Y-03008242D01*
G01*
X-24283306Y-03017802D01*
G01*
X-24280261Y-03027288D01*
G01*
X-24276982Y-03036697D01*
G01*
X-24273469Y-03046020D01*
G01*
X-24269726Y-03055254D01*
G01*
X-24265754Y-03064392D01*
G01*
X-24261557Y-03073428D01*
G01*
X-24257137Y-03082357D01*
G01*
X-24252496Y-03091174D01*
G01*
X-24247638Y-03099873D01*
G01*
X-24242564Y-03108448D01*
G01*
X-24237280Y-03116895D01*
G01*
X-24231787Y-03125207D01*
G01*
X-24226089Y-03133381D01*
G01*
X-24220190Y-03141411D01*
G01*
X-24214094Y-03149291D01*
G01*
X-24207803Y-03157018D01*
G01*
X-24201323Y-03164586D01*
G01*
X-24194656Y-03171990D01*
G01*
X-21794656Y-05771990D01*
G01*
X-21789161Y-05777826D01*
G01*
X-21783550Y-05783550D01*
G01*
X-20283550Y-07283550D01*
G01*
X-19716450Y-06716450D01*
G37*
D21*
G36*
X-19200000Y-08200000D02*
G01*
X-18867180Y-07978120D01*
G01*
X-18866348Y-07977565D01*
G01*
X-19666348Y-06777565D01*
G01*
X-20000000Y-07000000D01*
G01*
X-20332820Y-07221880D01*
G01*
X-20333652Y-07222435D01*
G01*
X-19533652Y-08422435D01*
G01*
X-19200000Y-08200000D01*
G37*
D21*
G36*
X-20535889Y-10198488D02*
G01*
X-18908468Y-08475336D01*
G01*
X-19491532Y-07924664D01*
G01*
X-21191532Y-09724664D01*
G01*
X-21198202Y-09731902D01*
G01*
X-21204693Y-09739302D01*
G01*
X-21210999Y-09746859D01*
G01*
X-21217119Y-09754568D01*
G01*
X-21223047Y-09762426D01*
G01*
X-21228781Y-09770426D01*
G01*
X-21234316Y-09778565D01*
G01*
X-21239651Y-09786837D01*
G01*
X-21244780Y-09795238D01*
G01*
X-21249702Y-09803762D01*
G01*
X-21254413Y-09812404D01*
G01*
X-21258911Y-09821159D01*
G01*
X-21263192Y-09830022D01*
G01*
X-21267255Y-09838987D01*
G01*
X-21271096Y-09848050D01*
G01*
X-21274714Y-09857204D01*
G01*
X-21278105Y-09866444D01*
G01*
X-21281270Y-09875764D01*
G01*
X-21284204Y-09885160D01*
G01*
X-21286907Y-09894624D01*
G01*
X-21289377Y-09904152D01*
G01*
X-22889401Y-16404152D01*
G01*
X-22110647Y-16595848D01*
G01*
X-20535889Y-10198488D01*
G37*
D21*
G36*
X-18315812Y-20528219D02*
G01*
X-23499000Y-03141501D01*
G01*
X-23499000Y000858673D01*
G01*
X-21507429Y010418214D01*
G01*
X-22292571Y010581786D01*
G01*
X-24292571Y000981786D01*
G01*
X-24294541Y000971681D01*
G01*
X-24296251Y000961529D01*
G01*
X-24297700Y000951336D01*
G01*
X-24298887Y000941109D01*
G01*
X-24299811Y000930856D01*
G01*
X-24300471Y000920582D01*
G01*
X-24300868Y000910294D01*
G01*
X-24301000Y000900000D01*
G01*
X-24301000Y-03200000D01*
G01*
X-24300883Y-03209681D01*
G01*
X-24300533Y-03219356D01*
G01*
X-24299949Y-03229019D01*
G01*
X-24299131Y-03238666D01*
G01*
X-24298082Y-03248291D01*
G01*
X-24296800Y-03257887D01*
G01*
X-24295287Y-03267449D01*
G01*
X-24293543Y-03276972D01*
G01*
X-24291570Y-03286450D01*
G01*
X-24289369Y-03295878D01*
G01*
X-24286941Y-03305250D01*
G01*
X-24284287Y-03314561D01*
G01*
X-19084386Y-20757341D01*
G01*
X-18315812Y-20528219D01*
G37*
D21*
G36*
X-18924532Y015359199D02*
G01*
X-19675468Y015640801D01*
G01*
X-20575468Y013240801D01*
G01*
X-19824532Y012959199D01*
G01*
X-18924532Y015359199D01*
G37*
D21*
G36*
X017921818Y-07034063D02*
G01*
X017929944Y-07028522D01*
G01*
X017937932Y-07022784D01*
G01*
X017945777Y-07016851D01*
G01*
X017953475Y-07010728D01*
G01*
X017961019Y-07004417D01*
G01*
X017968407Y-06997924D01*
G01*
X017975633Y-06991252D01*
G01*
X017982693Y-06984404D01*
G01*
X017989584Y-06977385D01*
G01*
X017996300Y-06970199D01*
G01*
X018002837Y-06962851D01*
G01*
X018009193Y-06955344D01*
G01*
X018015362Y-06947684D01*
G01*
X018021342Y-06939875D01*
G01*
X018027129Y-06931922D01*
G01*
X018032719Y-06923829D01*
G01*
X021732719Y-01423829D01*
G01*
X021738035Y-01415715D01*
G01*
X021743154Y-01407475D01*
G01*
X021748073Y-01399114D01*
G01*
X021752787Y-01390636D01*
G01*
X021757295Y-01382047D01*
G01*
X021761594Y-01373351D01*
G01*
X021765682Y-01364554D01*
G01*
X021769555Y-01355660D01*
G01*
X021773212Y-01346676D01*
G01*
X021776651Y-01337605D01*
G01*
X021779869Y-01328454D01*
G01*
X021782865Y-01319228D01*
G01*
X021785637Y-01309932D01*
G01*
X021788183Y-01300571D01*
G01*
X021790503Y-01291152D01*
G01*
X021792593Y-01281680D01*
G01*
X021794454Y-01272159D01*
G01*
X021796084Y-01262597D01*
G01*
X021797482Y-01252998D01*
G01*
X021997482Y000247002D01*
G01*
X021998607Y000256261D01*
G01*
X021999517Y000265542D01*
G01*
X022000210Y000274843D01*
G01*
X022000687Y000284157D01*
G01*
X022000947Y000293480D01*
G01*
X022000990Y000302806D01*
G01*
X022000816Y000312131D01*
G01*
X022000426Y000321449D01*
G01*
X021999819Y000330755D01*
G01*
X021899819Y001630755D01*
G01*
X021898945Y001640545D01*
G01*
X021897831Y001650310D01*
G01*
X021896479Y001660045D01*
G01*
X021894888Y001669744D01*
G01*
X021893060Y001679401D01*
G01*
X021890996Y001689011D01*
G01*
X021888697Y001698566D01*
G01*
X021886165Y001708063D01*
G01*
X021883400Y001717495D01*
G01*
X021880406Y001726856D01*
G01*
X021877182Y001736141D01*
G01*
X021873733Y001745344D01*
G01*
X021870058Y001754460D01*
G01*
X021866162Y001763483D01*
G01*
X021862045Y001772408D01*
G01*
X021857711Y001781229D01*
G01*
X021853162Y001789942D01*
G01*
X021848400Y001798540D01*
G01*
X021843430Y001807019D01*
G01*
X021838253Y001815374D01*
G01*
X021832873Y001823599D01*
G01*
X021827293Y001831690D01*
G01*
X021821516Y001839642D01*
G01*
X021815547Y001847450D01*
G01*
X021809387Y001855109D01*
G01*
X017109387Y007555109D01*
G01*
X017103096Y007562552D01*
G01*
X017096626Y007569840D01*
G01*
X017089981Y007576969D01*
G01*
X017083165Y007583935D01*
G01*
X017076181Y007590732D01*
G01*
X017069034Y007597358D01*
G01*
X017061728Y007603808D01*
G01*
X017054268Y007610079D01*
G01*
X017046657Y007616166D01*
G01*
X017038901Y007622067D01*
G01*
X017031004Y007627778D01*
G01*
X017022970Y007633295D01*
G01*
X017014804Y007638615D01*
G01*
X017006512Y007643735D01*
G01*
X016998097Y007648652D01*
G01*
X016989566Y007653363D01*
G01*
X016980923Y007657866D01*
G01*
X016972173Y007662157D01*
G01*
X016963321Y007666234D01*
G01*
X-05236679Y017566234D01*
G01*
X-05563321Y016833766D01*
G01*
X016550584Y006972160D01*
G01*
X021109910Y001442764D01*
G01*
X021196950Y000311244D01*
G01*
X021014916Y-01054011D01*
G01*
X017411775Y-06410031D01*
G01*
X004978182Y-14665937D01*
G01*
X005421818Y-15334063D01*
G01*
X017921818Y-07034063D01*
G37*
D21*
G36*
X000301000Y-18100000D02*
G01*
X000300898Y-18090943D01*
G01*
X000300591Y-18081891D01*
G01*
X000300080Y-18072847D01*
G01*
X000299364Y-18063818D01*
G01*
X000298445Y-18054807D01*
G01*
X000297323Y-18045820D01*
G01*
X-00302677Y-13645820D01*
G01*
X-01097323Y-13754180D01*
G01*
X-00501000Y-18127215D01*
G01*
X-00501000Y-21800000D01*
G01*
X000301000Y-21800000D01*
G01*
X000301000Y-18100000D01*
G37*
D21*
G36*
X014349260Y-02205390D02*
G01*
X013344260Y001044610D01*
G01*
X013055740Y000955390D01*
G01*
X014060740Y-02294610D01*
G01*
X014349260Y-02205390D01*
G37*
D21*
G36*
X014332740Y-02330520D02*
G01*
X014077260Y-02169480D01*
G01*
X011272260Y-06619480D01*
G01*
X011527740Y-06780520D01*
G01*
X014332740Y-02330520D01*
G37*
D21*
G36*
X023440558Y-08145451D02*
G01*
X023359442Y-07854549D01*
G01*
X012959442Y-10754549D01*
G01*
X013040558Y-11045451D01*
G01*
X023440558Y-08145451D01*
G37*
D21*
G36*
X014221078Y-02099858D02*
G01*
X004416078Y-01049858D01*
G01*
X004383922Y-01350142D01*
G01*
X014188922Y-02400142D01*
G01*
X014221078Y-02099858D01*
G37*
D21*
G36*
X024304899Y-11200940D02*
G01*
X024309795Y-11200761D01*
G01*
X024314686Y-11200463D01*
G01*
X024319568Y-11200045D01*
G01*
X024324438Y-11199509D01*
G01*
X024329293Y-11198854D01*
G01*
X024334131Y-11198081D01*
G01*
X024338949Y-11197190D01*
G01*
X024343744Y-11196182D01*
G01*
X024348513Y-11195058D01*
G01*
X024353253Y-11193817D01*
G01*
X024357961Y-11192462D01*
G01*
X024362635Y-11190992D01*
G01*
X024367271Y-11189408D01*
G01*
X024371868Y-11187713D01*
G01*
X024376422Y-11185905D01*
G01*
X024380930Y-11183987D01*
G01*
X024385391Y-11181960D01*
G01*
X024389801Y-11179825D01*
G01*
X024394157Y-11177582D01*
G01*
X024398457Y-11175235D01*
G01*
X024402699Y-11172783D01*
G01*
X024406880Y-11170228D01*
G01*
X024410997Y-11167573D01*
G01*
X024415049Y-11164817D01*
G01*
X024419032Y-11161964D01*
G01*
X024422944Y-11159015D01*
G01*
X024426784Y-11155971D01*
G01*
X024430548Y-11152834D01*
G01*
X024434234Y-11149607D01*
G01*
X024437841Y-11146291D01*
G01*
X024441365Y-11142888D01*
G01*
X024444806Y-11139399D01*
G01*
X024448161Y-11135829D01*
G01*
X024451427Y-11132177D01*
G01*
X024454604Y-11128447D01*
G01*
X024457689Y-11124640D01*
G01*
X024460680Y-11120760D01*
G01*
X024463576Y-11116808D01*
G01*
X024466374Y-11112786D01*
G01*
X024469074Y-11108697D01*
G01*
X024471673Y-11104544D01*
G01*
X024474170Y-11100328D01*
G01*
X024476564Y-11096053D01*
G01*
X024478852Y-11091721D01*
G01*
X024481035Y-11087335D01*
G01*
X024483110Y-11082896D01*
G01*
X024485076Y-11078409D01*
G01*
X024486932Y-11073874D01*
G01*
X024488677Y-11069296D01*
G01*
X024490310Y-11064677D01*
G01*
X024491830Y-11060019D01*
G01*
X024493236Y-11055325D01*
G01*
X024494527Y-11050599D01*
G01*
X024495702Y-11045843D01*
G01*
X024496762Y-11041059D01*
G01*
X024497704Y-11036251D01*
G01*
X024498529Y-11031421D01*
G01*
X024499236Y-11026573D01*
G01*
X024499824Y-11021709D01*
G01*
X024500294Y-11016832D01*
G01*
X024500645Y-11011945D01*
G01*
X024500876Y-11007051D01*
G01*
X024500988Y-11002153D01*
G01*
X024500981Y-10997253D01*
G01*
X024500855Y-10992355D01*
G01*
X024500609Y-10987462D01*
G01*
X024300609Y-07787462D01*
G01*
X024300230Y-07782420D01*
G01*
X024299724Y-07777388D01*
G01*
X024299092Y-07772371D01*
G01*
X024298334Y-07767372D01*
G01*
X024297451Y-07762393D01*
G01*
X024296442Y-07757438D01*
G01*
X024295309Y-07752510D01*
G01*
X024294053Y-07747612D01*
G01*
X024292674Y-07742747D01*
G01*
X024291172Y-07737918D01*
G01*
X024289550Y-07733129D01*
G01*
X024287808Y-07728382D01*
G01*
X024285947Y-07723680D01*
G01*
X024283968Y-07719027D01*
G01*
X024281873Y-07714425D01*
G01*
X024279663Y-07709877D01*
G01*
X024277339Y-07705386D01*
G01*
X024274903Y-07700955D01*
G01*
X024272356Y-07696586D01*
G01*
X023972356Y-07196586D01*
G01*
X023969767Y-07192390D01*
G01*
X023967077Y-07188257D01*
G01*
X023964285Y-07184193D01*
G01*
X023961395Y-07180198D01*
G01*
X023958408Y-07176274D01*
G01*
X023955325Y-07172426D01*
G01*
X023952149Y-07168654D01*
G01*
X023948881Y-07164961D01*
G01*
X023945524Y-07161350D01*
G01*
X023942079Y-07157822D01*
G01*
X023938548Y-07154379D01*
G01*
X023934935Y-07151025D01*
G01*
X023931240Y-07147759D01*
G01*
X023927466Y-07144586D01*
G01*
X023923615Y-07141506D01*
G01*
X023919690Y-07138521D01*
G01*
X023915693Y-07135634D01*
G01*
X023911626Y-07132845D01*
G01*
X023907492Y-07130157D01*
G01*
X023903293Y-07127572D01*
G01*
X023899032Y-07125090D01*
G01*
X023894712Y-07122713D01*
G01*
X023890335Y-07120443D01*
G01*
X023885903Y-07118281D01*
G01*
X023881419Y-07116229D01*
G01*
X023876887Y-07114287D01*
G01*
X023872308Y-07112457D01*
G01*
X023867686Y-07110739D01*
G01*
X023863023Y-07109136D01*
G01*
X023858322Y-07107647D01*
G01*
X023853586Y-07106275D01*
G01*
X023848818Y-07105018D01*
G01*
X023844020Y-07103880D01*
G01*
X023839196Y-07102859D01*
G01*
X023834348Y-07101957D01*
G01*
X023829480Y-07101174D01*
G01*
X023824594Y-07100510D01*
G01*
X023819693Y-07099967D01*
G01*
X023814780Y-07099544D01*
G01*
X023809858Y-07099242D01*
G01*
X023804931Y-07099060D01*
G01*
X023800000Y-07099000D01*
G01*
X023300000Y-07099000D01*
G01*
X023295026Y-07099062D01*
G01*
X023290056Y-07099246D01*
G01*
X023285092Y-07099554D01*
G01*
X023280136Y-07099984D01*
G01*
X023275193Y-07100537D01*
G01*
X023270265Y-07101212D01*
G01*
X023265356Y-07102008D01*
G01*
X023260467Y-07102926D01*
G01*
X023255603Y-07103965D01*
G01*
X017105601Y-08496785D01*
G01*
X017194395Y-08888855D01*
G01*
X023322476Y-07501000D01*
G01*
X023686196Y-07501000D01*
G01*
X023902446Y-07861418D01*
G01*
X024086045Y-10799000D01*
G01*
X023400000Y-10799000D01*
G01*
X023400000Y-11201000D01*
G01*
X024300000Y-11201000D01*
G01*
X024304899Y-11200940D01*
G37*
D21*
G36*
X016566266Y-10789762D02*
G01*
X016433734Y-10410238D01*
G01*
X010133734Y-12610238D01*
G01*
X010266266Y-12989762D01*
G01*
X016566266Y-10789762D01*
G37*
D21*
G36*
X007959320Y-10492047D02*
G01*
X007840680Y-10107953D01*
G01*
X005140704Y-10941928D01*
G01*
X005259344Y-11326022D01*
G01*
X007959320Y-10492047D01*
G37*
D21*
G36*
X005395147Y-11085724D02*
G01*
X003260073Y-02451749D01*
G01*
X002869827Y-02548251D01*
G01*
X005004901Y-11182226D01*
G01*
X005395147Y-11085724D01*
G37*
D21*
G36*
X-05153928Y-29511786D02*
G01*
X-02089381Y-28474555D01*
G01*
X-02077894Y-28470511D01*
G01*
X-02066509Y-28466189D01*
G01*
X-02055232Y-28461591D01*
G01*
X-02044071Y-28456721D01*
G01*
X-02033030Y-28451581D01*
G01*
X-02022119Y-28446174D01*
G01*
X-02011341Y-28440503D01*
G01*
X-02000705Y-28434572D01*
G01*
X-01990216Y-28428385D01*
G01*
X-01979881Y-28421944D01*
G01*
X-01969705Y-28415254D01*
G01*
X-01959695Y-28408318D01*
G01*
X-01949856Y-28401142D01*
G01*
X-01940195Y-28393728D01*
G01*
X-01930716Y-28386081D01*
G01*
X-01921427Y-28378207D01*
G01*
X-01912331Y-28370109D01*
G01*
X-01903435Y-28361792D01*
G01*
X-01894744Y-28353262D01*
G01*
X-01886263Y-28344523D01*
G01*
X-01877996Y-28335580D01*
G01*
X-01869949Y-28326439D01*
G01*
X-01862127Y-28317105D01*
G01*
X-01854535Y-28307584D01*
G01*
X-01504535Y-27857584D01*
G01*
X-01497030Y-27847685D01*
G01*
X-01489774Y-27837603D01*
G01*
X-01482770Y-27827344D01*
G01*
X-01476022Y-27816915D01*
G01*
X-01469535Y-27806322D01*
G01*
X-01463313Y-27795571D01*
G01*
X-01457358Y-27784669D01*
G01*
X-01451677Y-27773623D01*
G01*
X-01446270Y-27762439D01*
G01*
X-01441143Y-27751125D01*
G01*
X-01436298Y-27739687D01*
G01*
X-01431737Y-27728132D01*
G01*
X-01427465Y-27716468D01*
G01*
X-01423483Y-27704702D01*
G01*
X-01419794Y-27692841D01*
G01*
X-01416401Y-27680891D01*
G01*
X-01413304Y-27668862D01*
G01*
X-01410507Y-27656759D01*
G01*
X-01408011Y-27644590D01*
G01*
X-01405817Y-27632364D01*
G01*
X-01305817Y-27032364D01*
G01*
X-01303958Y-27020310D01*
G01*
X-01302394Y-27008214D01*
G01*
X-01301124Y-26996083D01*
G01*
X-01300150Y-26983926D01*
G01*
X-01299472Y-26971748D01*
G01*
X-01299091Y-26959557D01*
G01*
X-01299007Y-26947361D01*
G01*
X-01299220Y-26935166D01*
G01*
X-01299729Y-26922980D01*
G01*
X-01300535Y-26910810D01*
G01*
X-01301637Y-26898663D01*
G01*
X-01303034Y-26886547D01*
G01*
X-01304726Y-26874468D01*
G01*
X-01306712Y-26862434D01*
G01*
X-01308990Y-26850452D01*
G01*
X-01311558Y-26838529D01*
G01*
X-01314417Y-26826672D01*
G01*
X-01317563Y-26814888D01*
G01*
X-01320995Y-26803184D01*
G01*
X-01324710Y-26791568D01*
G01*
X-01328708Y-26780045D01*
G01*
X-01332985Y-26768622D01*
G01*
X-01337538Y-26757308D01*
G01*
X-01587538Y-26157308D01*
G01*
X-01592572Y-26145646D01*
G01*
X-01597900Y-26134115D01*
G01*
X-01603518Y-26122723D01*
G01*
X-01609423Y-26111477D01*
G01*
X-01615612Y-26100384D01*
G01*
X-01622080Y-26089452D01*
G01*
X-01628822Y-26078688D01*
G01*
X-01635836Y-26068097D01*
G01*
X-01643116Y-26057688D01*
G01*
X-01650657Y-26047467D01*
G01*
X-02900657Y-24397467D01*
G01*
X-02907385Y-24388785D01*
G01*
X-02914302Y-24380253D01*
G01*
X-02921405Y-24371874D01*
G01*
X-03571405Y-23621898D01*
G01*
X-04328595Y-24278150D01*
G01*
X-03689390Y-25015671D01*
G01*
X-02487902Y-26601635D01*
G01*
X-02317865Y-27009725D01*
G01*
X-02373332Y-27342530D01*
G01*
X-02553110Y-27573672D01*
G01*
X-05660619Y-28625445D01*
G01*
X-05672354Y-28629580D01*
G01*
X-05683983Y-28634005D01*
G01*
X-05695499Y-28638718D01*
G01*
X-05706894Y-28643715D01*
G01*
X-05718162Y-28648994D01*
G01*
X-05729295Y-28654551D01*
G01*
X-05740286Y-28660382D01*
G01*
X-05751129Y-28666485D01*
G01*
X-05761818Y-28672855D01*
G01*
X-05772345Y-28679489D01*
G01*
X-05782703Y-28686382D01*
G01*
X-05792888Y-28693530D01*
G01*
X-05802892Y-28700929D01*
G01*
X-05812709Y-28708574D01*
G01*
X-05822333Y-28716461D01*
G01*
X-05831758Y-28724584D01*
G01*
X-05840979Y-28732938D01*
G01*
X-05849989Y-28741519D01*
G01*
X-05858784Y-28750321D01*
G01*
X-05867357Y-28759339D01*
G01*
X-05875704Y-28768567D01*
G01*
X-05883819Y-28778000D01*
G01*
X-05891697Y-28787631D01*
G01*
X-05899333Y-28797454D01*
G01*
X-05906723Y-28807464D01*
G01*
X-05913863Y-28817655D01*
G01*
X-05920747Y-28828020D01*
G01*
X-05927371Y-28838553D01*
G01*
X-05933732Y-28849247D01*
G01*
X-05939826Y-28860095D01*
G01*
X-06239826Y-29410095D01*
G01*
X-05360174Y-29889905D01*
G01*
X-05153928Y-29511786D01*
G37*
D21*
G36*
X-05668178Y-30133347D02*
G01*
X-05931822Y-29166653D01*
G01*
X-06481822Y-29316653D01*
G01*
X-06218178Y-30283347D01*
G01*
X-05668178Y-30133347D01*
G37*
D21*
G36*
X001575394Y-28599712D02*
G01*
X001581432Y-28599024D01*
G01*
X001587451Y-28598190D01*
G01*
X001593448Y-28597211D01*
G01*
X001599420Y-28596087D01*
G01*
X001605362Y-28594818D01*
G01*
X001611272Y-28593406D01*
G01*
X001617147Y-28591852D01*
G01*
X001622982Y-28590156D01*
G01*
X001628774Y-28588318D01*
G01*
X001634520Y-28586342D01*
G01*
X001640216Y-28584226D01*
G01*
X001645860Y-28581974D01*
G01*
X001651447Y-28579585D01*
G01*
X001656975Y-28577062D01*
G01*
X001662440Y-28574406D01*
G01*
X001667840Y-28571619D01*
G01*
X001673170Y-28568701D01*
G01*
X001678428Y-28565655D01*
G01*
X001683611Y-28562483D01*
G01*
X001688715Y-28559187D01*
G01*
X001693738Y-28555767D01*
G01*
X001698677Y-28552228D01*
G01*
X001703529Y-28548569D01*
G01*
X001708291Y-28544795D01*
G01*
X001712960Y-28540906D01*
G01*
X001717534Y-28536905D01*
G01*
X001722009Y-28532795D01*
G01*
X001726384Y-28528577D01*
G01*
X001730655Y-28524255D01*
G01*
X001734820Y-28519831D01*
G01*
X001738877Y-28515307D01*
G01*
X001742824Y-28510686D01*
G01*
X002242824Y-27910686D01*
G01*
X002246749Y-27905855D01*
G01*
X002250553Y-27900929D01*
G01*
X002254234Y-27895909D01*
G01*
X002257789Y-27890800D01*
G01*
X002261217Y-27885604D01*
G01*
X002264514Y-27880325D01*
G01*
X002267680Y-27874966D01*
G01*
X002270712Y-27869530D01*
G01*
X002273608Y-27864020D01*
G01*
X002276366Y-27858440D01*
G01*
X002278986Y-27852794D01*
G01*
X002281464Y-27847084D01*
G01*
X002283800Y-27841315D01*
G01*
X002285993Y-27835489D01*
G01*
X002288040Y-27829611D01*
G01*
X002289941Y-27823684D01*
G01*
X002291694Y-27817712D01*
G01*
X002293299Y-27811698D01*
G01*
X002294754Y-27805646D01*
G01*
X002296059Y-27799559D01*
G01*
X002297212Y-27793443D01*
G01*
X002298213Y-27787299D01*
G01*
X002299062Y-27781133D01*
G01*
X002299757Y-27774948D01*
G01*
X002300299Y-27768747D01*
G01*
X002300687Y-27762534D01*
G01*
X002347051Y-26835259D01*
G01*
X003459242Y-25259655D01*
G01*
X004084420Y-25036377D01*
G01*
X003915580Y-24563623D01*
G01*
X003215580Y-24813623D01*
G01*
X003209809Y-24815764D01*
G01*
X003204092Y-24818046D01*
G01*
X003198433Y-24820468D01*
G01*
X003192835Y-24823027D01*
G01*
X003187301Y-24825724D01*
G01*
X003181835Y-24828555D01*
G01*
X003176440Y-24831519D01*
G01*
X003171120Y-24834614D01*
G01*
X003165877Y-24837840D01*
G01*
X003160715Y-24841192D01*
G01*
X003155636Y-24844671D01*
G01*
X003150645Y-24848272D01*
G01*
X003145743Y-24851996D01*
G01*
X003140934Y-24855838D01*
G01*
X003136220Y-24859797D01*
G01*
X003131606Y-24863870D01*
G01*
X003127092Y-24868056D01*
G01*
X003122682Y-24872350D01*
G01*
X003118379Y-24876752D01*
G01*
X003114186Y-24881258D01*
G01*
X003110104Y-24885865D01*
G01*
X003106136Y-24890571D01*
G01*
X003102285Y-24895373D01*
G01*
X003098552Y-24900268D01*
G01*
X003094941Y-24905253D01*
G01*
X001894941Y-26605253D01*
G01*
X001891449Y-26610330D01*
G01*
X001888083Y-26615492D01*
G01*
X001884845Y-26620735D01*
G01*
X001881736Y-26626056D01*
G01*
X001878759Y-26631452D01*
G01*
X001875916Y-26636919D01*
G01*
X001873207Y-26642455D01*
G01*
X001870635Y-26648055D01*
G01*
X001868202Y-26653716D01*
G01*
X001865908Y-26659436D01*
G01*
X001863755Y-26665210D01*
G01*
X001861745Y-26671036D01*
G01*
X001859878Y-26676909D01*
G01*
X001858156Y-26682826D01*
G01*
X001856580Y-26688783D01*
G01*
X001855150Y-26694777D01*
G01*
X001853868Y-26700805D01*
G01*
X001852735Y-26706862D01*
G01*
X001851750Y-26712946D01*
G01*
X001850915Y-26719051D01*
G01*
X001850231Y-26725176D01*
G01*
X001849696Y-26731315D01*
G01*
X001849313Y-26737466D01*
G01*
X001803500Y-27653725D01*
G01*
X001422731Y-28110648D01*
G01*
X-01425394Y-28400288D01*
G01*
X-01374606Y-28899712D01*
G01*
X001575394Y-28599712D01*
G37*
D21*
G36*
X-04403161Y-20894259D02*
G01*
X-07952512Y-16408273D01*
G01*
X-08099000Y-12794914D01*
G01*
X-08099000Y-11150000D01*
G01*
X-08601000Y-11150000D01*
G01*
X-08601000Y-12800000D01*
G01*
X-08600948Y-12805085D01*
G01*
X-08600794Y-12810167D01*
G01*
X-08450794Y-16510167D01*
G01*
X-08450475Y-16516229D01*
G01*
X-08450009Y-16522282D01*
G01*
X-08449397Y-16528322D01*
G01*
X-08448639Y-16534345D01*
G01*
X-08447736Y-16540348D01*
G01*
X-08446688Y-16546327D01*
G01*
X-08445495Y-16552280D01*
G01*
X-08444159Y-16558201D01*
G01*
X-08442680Y-16564089D01*
G01*
X-08441059Y-16569939D01*
G01*
X-08439297Y-16575748D01*
G01*
X-08437395Y-16581513D01*
G01*
X-08435355Y-16587231D01*
G01*
X-08433176Y-16592897D01*
G01*
X-08430861Y-16598509D01*
G01*
X-08428412Y-16604063D01*
G01*
X-08425828Y-16609556D01*
G01*
X-08423113Y-16614986D01*
G01*
X-08420267Y-16620348D01*
G01*
X-08417292Y-16625640D01*
G01*
X-08414190Y-16630858D01*
G01*
X-08410963Y-16635999D01*
G01*
X-08407612Y-16641061D01*
G01*
X-08404140Y-16646041D01*
G01*
X-08400548Y-16650935D01*
G01*
X-08396839Y-16655741D01*
G01*
X-04796839Y-21205741D01*
G01*
X-04403161Y-20894259D01*
G37*
D21*
G36*
X001574983Y-15038718D02*
G01*
X-00725017Y-10388718D01*
G01*
X-00727763Y-10383331D01*
G01*
X-00730638Y-10378011D01*
G01*
X-00733640Y-10372762D01*
G01*
X-00736768Y-10367588D01*
G01*
X-00740019Y-10362489D01*
G01*
X-00743393Y-10357471D01*
G01*
X-00746886Y-10352536D01*
G01*
X-00750497Y-10347686D01*
G01*
X-00754224Y-10342924D01*
G01*
X-00758065Y-10338254D01*
G01*
X-00762017Y-10333677D01*
G01*
X-00766078Y-10329197D01*
G01*
X-00770246Y-10324816D01*
G01*
X-00774518Y-10320537D01*
G01*
X-00778892Y-10316362D01*
G01*
X-00783365Y-10312293D01*
G01*
X-00787935Y-10308334D01*
G01*
X-00792599Y-10304485D01*
G01*
X-00797355Y-10300750D01*
G01*
X-00802199Y-10297131D01*
G01*
X-00807128Y-10293630D01*
G01*
X-02107128Y-09393630D01*
G01*
X-02392872Y-09806370D01*
G01*
X-01146217Y-10669439D01*
G01*
X001125017Y-15261282D01*
G01*
X001574983Y-15038718D01*
G37*
D21*
G36*
X-02114941Y-14082496D02*
G01*
X-02914941Y-12482472D01*
G01*
X-02916628Y-12479198D01*
G01*
X-02918394Y-12475967D01*
G01*
X-02920239Y-12472780D01*
G01*
X-02922160Y-12469638D01*
G01*
X-02924158Y-12466545D01*
G01*
X-02926230Y-12463501D01*
G01*
X-02928377Y-12460508D01*
G01*
X-02930595Y-12457569D01*
G01*
X-02932885Y-12454685D01*
G01*
X-02935244Y-12451857D01*
G01*
X-02937671Y-12449088D01*
G01*
X-02940165Y-12446379D01*
G01*
X-02942725Y-12443731D01*
G01*
X-02945348Y-12441147D01*
G01*
X-02948034Y-12438627D01*
G01*
X-02950780Y-12436174D01*
G01*
X-02953585Y-12433788D01*
G01*
X-02956448Y-12431472D01*
G01*
X-02959366Y-12429226D01*
G01*
X-02962338Y-12427051D01*
G01*
X-02965362Y-12424950D01*
G01*
X-02968437Y-12422924D01*
G01*
X-02971560Y-12420972D01*
G01*
X-02974729Y-12419098D01*
G01*
X-02977944Y-12417301D01*
G01*
X-02981201Y-12415584D01*
G01*
X-02984499Y-12413946D01*
G01*
X-02987837Y-12412389D01*
G01*
X-02991211Y-12410914D01*
G01*
X-02994620Y-12409522D01*
G01*
X-02998062Y-12408213D01*
G01*
X-03001535Y-12406989D01*
G01*
X-03005037Y-12405850D01*
G01*
X-03008565Y-12404796D01*
G01*
X-03012119Y-12403829D01*
G01*
X-03015694Y-12402949D01*
G01*
X-03019290Y-12402156D01*
G01*
X-03022905Y-12401451D01*
G01*
X-03026535Y-12400834D01*
G01*
X-03030180Y-12400306D01*
G01*
X-03033836Y-12399868D01*
G01*
X-03037502Y-12399518D01*
G01*
X-03041175Y-12399258D01*
G01*
X-03044854Y-12399088D01*
G01*
X-03048535Y-12399007D01*
G01*
X-03052218Y-12399016D01*
G01*
X-03055899Y-12399115D01*
G01*
X-03059577Y-12399304D01*
G01*
X-03063249Y-12399582D01*
G01*
X-03066913Y-12399950D01*
G01*
X-03070567Y-12400407D01*
G01*
X-03074208Y-12400953D01*
G01*
X-03077836Y-12401588D01*
G01*
X-03081447Y-12402311D01*
G01*
X-03085039Y-12403122D01*
G01*
X-03088610Y-12404020D01*
G01*
X-03092158Y-12405005D01*
G01*
X-03095682Y-12406076D01*
G01*
X-03099178Y-12407232D01*
G01*
X-03102644Y-12408474D01*
G01*
X-03106080Y-12409800D01*
G01*
X-04606080Y-13009800D01*
G01*
X-04493920Y-13290200D01*
G01*
X-03122923Y-12741801D01*
G01*
X-02385059Y-14217552D01*
G01*
X-02114941Y-14082496D01*
G37*
D21*
G36*
X-10093840Y-25500924D02*
G01*
X-10087684Y-25500698D01*
G01*
X-10081535Y-25500320D01*
G01*
X-10075398Y-25499791D01*
G01*
X-10069275Y-25499112D01*
G01*
X-10063171Y-25498283D01*
G01*
X-10057089Y-25497305D01*
G01*
X-10051032Y-25496177D01*
G01*
X-10045006Y-25494901D01*
G01*
X-10039012Y-25493478D01*
G01*
X-10033055Y-25491908D01*
G01*
X-10027139Y-25490192D01*
G01*
X-10021266Y-25488332D01*
G01*
X-10015441Y-25486328D01*
G01*
X-10009666Y-25484181D01*
G01*
X-10003946Y-25481894D01*
G01*
X-09998284Y-25479467D01*
G01*
X-09992684Y-25476901D01*
G01*
X-09987148Y-25474199D01*
G01*
X-09981679Y-25471362D01*
G01*
X-09976283Y-25468392D01*
G01*
X-09970960Y-25465290D01*
G01*
X-09965716Y-25462058D01*
G01*
X-09960552Y-25458699D01*
G01*
X-09955472Y-25455214D01*
G01*
X-09950479Y-25451605D01*
G01*
X-09945577Y-25447875D01*
G01*
X-09940767Y-25444026D01*
G01*
X-09936054Y-25440059D01*
G01*
X-09931439Y-25435979D01*
G01*
X-09926925Y-25431786D01*
G01*
X-09922516Y-25427484D01*
G01*
X-09872516Y-25377484D01*
G01*
X-09868214Y-25373075D01*
G01*
X-09864021Y-25368561D01*
G01*
X-09859941Y-25363946D01*
G01*
X-09855974Y-25359233D01*
G01*
X-09852125Y-25354423D01*
G01*
X-09848395Y-25349521D01*
G01*
X-09844786Y-25344528D01*
G01*
X-09841301Y-25339448D01*
G01*
X-09837942Y-25334284D01*
G01*
X-09834710Y-25329040D01*
G01*
X-09831608Y-25323717D01*
G01*
X-09828638Y-25318321D01*
G01*
X-09825801Y-25312852D01*
G01*
X-09823099Y-25307316D01*
G01*
X-09820533Y-25301716D01*
G01*
X-09818106Y-25296054D01*
G01*
X-09815819Y-25290334D01*
G01*
X-09813672Y-25284559D01*
G01*
X-09811668Y-25278734D01*
G01*
X-09809808Y-25272861D01*
G01*
X-09808092Y-25266945D01*
G01*
X-09806522Y-25260988D01*
G01*
X-09805099Y-25254994D01*
G01*
X-09803823Y-25248968D01*
G01*
X-09802695Y-25242911D01*
G01*
X-09801717Y-25236829D01*
G01*
X-09800888Y-25230725D01*
G01*
X-09800209Y-25224602D01*
G01*
X-09799680Y-25218465D01*
G01*
X-09799302Y-25212316D01*
G01*
X-09799076Y-25206160D01*
G01*
X-09799000Y-25200000D01*
G01*
X-09799000Y-24200316D01*
G01*
X-09798395Y-24199521D01*
G01*
X-09794786Y-24194528D01*
G01*
X-09791301Y-24189448D01*
G01*
X-09787942Y-24184284D01*
G01*
X-09784710Y-24179040D01*
G01*
X-09781608Y-24173717D01*
G01*
X-09778638Y-24168321D01*
G01*
X-09775801Y-24162852D01*
G01*
X-09773099Y-24157316D01*
G01*
X-09770533Y-24151716D01*
G01*
X-09768106Y-24146054D01*
G01*
X-09765819Y-24140334D01*
G01*
X-09763672Y-24134559D01*
G01*
X-09761668Y-24128734D01*
G01*
X-09759808Y-24122861D01*
G01*
X-09758092Y-24116945D01*
G01*
X-09756522Y-24110988D01*
G01*
X-09755099Y-24104994D01*
G01*
X-09753823Y-24098968D01*
G01*
X-09752695Y-24092911D01*
G01*
X-09751717Y-24086829D01*
G01*
X-09750888Y-24080725D01*
G01*
X-09750209Y-24074602D01*
G01*
X-09749680Y-24068465D01*
G01*
X-09749302Y-24062316D01*
G01*
X-09749076Y-24056160D01*
G01*
X-09749000Y-24050000D01*
G01*
X-09749000Y-23853968D01*
G01*
X-08722516Y-22827484D01*
G01*
X-08718214Y-22823075D01*
G01*
X-08714021Y-22818561D01*
G01*
X-08709941Y-22813946D01*
G01*
X-08705974Y-22809233D01*
G01*
X-08702125Y-22804423D01*
G01*
X-08698395Y-22799521D01*
G01*
X-08694786Y-22794528D01*
G01*
X-08691301Y-22789448D01*
G01*
X-08687942Y-22784284D01*
G01*
X-08684710Y-22779040D01*
G01*
X-08681608Y-22773717D01*
G01*
X-08678638Y-22768321D01*
G01*
X-08675801Y-22762852D01*
G01*
X-08673099Y-22757316D01*
G01*
X-08670533Y-22751716D01*
G01*
X-08668106Y-22746054D01*
G01*
X-08665819Y-22740334D01*
G01*
X-08663672Y-22734559D01*
G01*
X-08661668Y-22728734D01*
G01*
X-08659808Y-22722861D01*
G01*
X-08658092Y-22716945D01*
G01*
X-08656522Y-22710988D01*
G01*
X-08655099Y-22704994D01*
G01*
X-08653823Y-22698968D01*
G01*
X-08652695Y-22692911D01*
G01*
X-08651717Y-22686829D01*
G01*
X-08650888Y-22680725D01*
G01*
X-08650209Y-22674602D01*
G01*
X-08649680Y-22668465D01*
G01*
X-08649302Y-22662316D01*
G01*
X-08649076Y-22656160D01*
G01*
X-08649000Y-22650000D01*
G01*
X-08649000Y-22603968D01*
G01*
X-07222516Y-21177484D01*
G01*
X-07218214Y-21173075D01*
G01*
X-07214021Y-21168561D01*
G01*
X-07209941Y-21163946D01*
G01*
X-07205974Y-21159233D01*
G01*
X-07202125Y-21154423D01*
G01*
X-07198395Y-21149521D01*
G01*
X-07194786Y-21144528D01*
G01*
X-07191301Y-21139448D01*
G01*
X-07187942Y-21134284D01*
G01*
X-07184710Y-21129040D01*
G01*
X-07181608Y-21123717D01*
G01*
X-07178638Y-21118321D01*
G01*
X-07175801Y-21112852D01*
G01*
X-07173099Y-21107316D01*
G01*
X-07170533Y-21101716D01*
G01*
X-07168106Y-21096054D01*
G01*
X-07165819Y-21090334D01*
G01*
X-07163672Y-21084559D01*
G01*
X-07161668Y-21078734D01*
G01*
X-07159808Y-21072861D01*
G01*
X-07158092Y-21066945D01*
G01*
X-07156522Y-21060988D01*
G01*
X-07155099Y-21054994D01*
G01*
X-07153823Y-21048968D01*
G01*
X-07152695Y-21042911D01*
G01*
X-07151717Y-21036829D01*
G01*
X-07150888Y-21030725D01*
G01*
X-07150209Y-21024602D01*
G01*
X-07149680Y-21018465D01*
G01*
X-07149302Y-21012316D01*
G01*
X-07149076Y-21006160D01*
G01*
X-07149004Y-21000321D01*
G01*
X-07148395Y-20999521D01*
G01*
X-07144786Y-20994528D01*
G01*
X-07141301Y-20989448D01*
G01*
X-07137942Y-20984284D01*
G01*
X-07134710Y-20979040D01*
G01*
X-07131608Y-20973717D01*
G01*
X-07128638Y-20968321D01*
G01*
X-07125801Y-20962852D01*
G01*
X-07123099Y-20957316D01*
G01*
X-07120533Y-20951716D01*
G01*
X-07118106Y-20946054D01*
G01*
X-07115819Y-20940334D01*
G01*
X-07113672Y-20934559D01*
G01*
X-07111668Y-20928734D01*
G01*
X-07109808Y-20922861D01*
G01*
X-07108092Y-20916945D01*
G01*
X-07106702Y-20911669D01*
G01*
X-07072516Y-20877484D01*
G01*
X-07068214Y-20873075D01*
G01*
X-07064021Y-20868561D01*
G01*
X-07059941Y-20863946D01*
G01*
X-07055974Y-20859233D01*
G01*
X-07052125Y-20854423D01*
G01*
X-07048395Y-20849521D01*
G01*
X-07044786Y-20844528D01*
G01*
X-07041301Y-20839448D01*
G01*
X-07037942Y-20834284D01*
G01*
X-07034710Y-20829040D01*
G01*
X-07031608Y-20823717D01*
G01*
X-07028638Y-20818321D01*
G01*
X-07025801Y-20812852D01*
G01*
X-07023099Y-20807316D01*
G01*
X-07020533Y-20801716D01*
G01*
X-07018106Y-20796054D01*
G01*
X-07015819Y-20790334D01*
G01*
X-07014152Y-20785848D01*
G01*
X-07009666Y-20784181D01*
G01*
X-07003946Y-20781894D01*
G01*
X-06998284Y-20779467D01*
G01*
X-06992684Y-20776901D01*
G01*
X-06987148Y-20774199D01*
G01*
X-06981679Y-20771362D01*
G01*
X-06976283Y-20768392D01*
G01*
X-06970960Y-20765290D01*
G01*
X-06965716Y-20762058D01*
G01*
X-06960552Y-20758699D01*
G01*
X-06955472Y-20755214D01*
G01*
X-06950479Y-20751605D01*
G01*
X-06945577Y-20747875D01*
G01*
X-06940767Y-20744026D01*
G01*
X-06936054Y-20740059D01*
G01*
X-06931439Y-20735979D01*
G01*
X-06926925Y-20731786D01*
G01*
X-06922516Y-20727484D01*
G01*
X-06822516Y-20627484D01*
G01*
X-06926461Y-20523539D01*
G01*
X-07133173Y-20316827D01*
G01*
X-07100000Y-20303086D01*
G01*
X-07100000Y-20300000D01*
G01*
X-07100000Y-20299000D01*
G01*
X-07150000Y-20299000D01*
G01*
X-07150988Y-20299012D01*
G01*
X-07176777Y-20273223D01*
G01*
X-07177484Y-20272516D01*
G01*
X-07211669Y-20306702D01*
G01*
X-07216945Y-20308092D01*
G01*
X-07222861Y-20309808D01*
G01*
X-07228734Y-20311668D01*
G01*
X-07234559Y-20313672D01*
G01*
X-07240334Y-20315819D01*
G01*
X-07246054Y-20318106D01*
G01*
X-07251716Y-20320533D01*
G01*
X-07257316Y-20323099D01*
G01*
X-07262852Y-20325801D01*
G01*
X-07268321Y-20328638D01*
G01*
X-07273717Y-20331608D01*
G01*
X-07279040Y-20334710D01*
G01*
X-07284284Y-20337942D01*
G01*
X-07289448Y-20341301D01*
G01*
X-07294528Y-20344786D01*
G01*
X-07299521Y-20348395D01*
G01*
X-07304423Y-20352125D01*
G01*
X-07309233Y-20355974D01*
G01*
X-07313946Y-20359941D01*
G01*
X-07318561Y-20364021D01*
G01*
X-07323075Y-20368214D01*
G01*
X-07327484Y-20372516D01*
G01*
X-07427484Y-20472516D01*
G01*
X-07431786Y-20476925D01*
G01*
X-07435979Y-20481439D01*
G01*
X-07440059Y-20486054D01*
G01*
X-07444026Y-20490767D01*
G01*
X-07447875Y-20495577D01*
G01*
X-07451605Y-20500479D01*
G01*
X-07455214Y-20505472D01*
G01*
X-07458699Y-20510552D01*
G01*
X-07462058Y-20515716D01*
G01*
X-07465290Y-20520960D01*
G01*
X-07468392Y-20526283D01*
G01*
X-07471362Y-20531679D01*
G01*
X-07474199Y-20537148D01*
G01*
X-07476901Y-20542684D01*
G01*
X-07479467Y-20548284D01*
G01*
X-07481894Y-20553946D01*
G01*
X-07484181Y-20559666D01*
G01*
X-07486328Y-20565441D01*
G01*
X-07488332Y-20571266D01*
G01*
X-07490192Y-20577139D01*
G01*
X-07491908Y-20583055D01*
G01*
X-07493298Y-20588331D01*
G01*
X-07527484Y-20622516D01*
G01*
X-07531786Y-20626925D01*
G01*
X-07535979Y-20631439D01*
G01*
X-07540059Y-20636054D01*
G01*
X-07544026Y-20640767D01*
G01*
X-07547875Y-20645577D01*
G01*
X-07551605Y-20650479D01*
G01*
X-07555214Y-20655472D01*
G01*
X-07558699Y-20660552D01*
G01*
X-07562058Y-20665716D01*
G01*
X-07565290Y-20670960D01*
G01*
X-07568392Y-20676283D01*
G01*
X-07571362Y-20681679D01*
G01*
X-07574199Y-20687148D01*
G01*
X-07576901Y-20692684D01*
G01*
X-07579467Y-20698284D01*
G01*
X-07581894Y-20703946D01*
G01*
X-07584181Y-20709666D01*
G01*
X-07586328Y-20715441D01*
G01*
X-07588332Y-20721266D01*
G01*
X-07590192Y-20727139D01*
G01*
X-07591908Y-20733055D01*
G01*
X-07593478Y-20739012D01*
G01*
X-07593843Y-20740551D01*
G01*
X-07594026Y-20740767D01*
G01*
X-07597875Y-20745577D01*
G01*
X-07601605Y-20750479D01*
G01*
X-07605214Y-20755472D01*
G01*
X-07608699Y-20760552D01*
G01*
X-07612058Y-20765716D01*
G01*
X-07615290Y-20770960D01*
G01*
X-07618392Y-20776283D01*
G01*
X-07621362Y-20781679D01*
G01*
X-07624199Y-20787148D01*
G01*
X-07626901Y-20792684D01*
G01*
X-07629467Y-20798284D01*
G01*
X-07631894Y-20803946D01*
G01*
X-07634181Y-20809666D01*
G01*
X-07636328Y-20815441D01*
G01*
X-07638332Y-20821266D01*
G01*
X-07640192Y-20827139D01*
G01*
X-07641908Y-20833055D01*
G01*
X-07643478Y-20839012D01*
G01*
X-07644901Y-20845006D01*
G01*
X-07646177Y-20851032D01*
G01*
X-07647305Y-20857089D01*
G01*
X-07648283Y-20863171D01*
G01*
X-07649112Y-20869275D01*
G01*
X-07649791Y-20875398D01*
G01*
X-07650320Y-20881535D01*
G01*
X-07650698Y-20887684D01*
G01*
X-07650924Y-20893840D01*
G01*
X-07650951Y-20895983D01*
G01*
X-09077484Y-22322516D01*
G01*
X-09081786Y-22326925D01*
G01*
X-09085979Y-22331439D01*
G01*
X-09090059Y-22336054D01*
G01*
X-09094026Y-22340767D01*
G01*
X-09097875Y-22345577D01*
G01*
X-09101605Y-22350479D01*
G01*
X-09105214Y-22355472D01*
G01*
X-09108699Y-22360552D01*
G01*
X-09112058Y-22365716D01*
G01*
X-09115290Y-22370960D01*
G01*
X-09118392Y-22376283D01*
G01*
X-09121362Y-22381679D01*
G01*
X-09124199Y-22387148D01*
G01*
X-09126901Y-22392684D01*
G01*
X-09129467Y-22398284D01*
G01*
X-09131894Y-22403946D01*
G01*
X-09134181Y-22409666D01*
G01*
X-09136328Y-22415441D01*
G01*
X-09138332Y-22421266D01*
G01*
X-09140192Y-22427139D01*
G01*
X-09141908Y-22433055D01*
G01*
X-09143478Y-22439012D01*
G01*
X-09144901Y-22445006D01*
G01*
X-09146177Y-22451032D01*
G01*
X-09147305Y-22457089D01*
G01*
X-09148283Y-22463171D01*
G01*
X-09149112Y-22469275D01*
G01*
X-09149791Y-22475398D01*
G01*
X-09150320Y-22481535D01*
G01*
X-09150698Y-22487684D01*
G01*
X-09150924Y-22493840D01*
G01*
X-09151000Y-22500000D01*
G01*
X-09151000Y-22546032D01*
G01*
X-10177484Y-23572516D01*
G01*
X-10181786Y-23576925D01*
G01*
X-10185979Y-23581439D01*
G01*
X-10190059Y-23586054D01*
G01*
X-10194026Y-23590767D01*
G01*
X-10197875Y-23595577D01*
G01*
X-10201605Y-23600479D01*
G01*
X-10205214Y-23605472D01*
G01*
X-10208699Y-23610552D01*
G01*
X-10212058Y-23615716D01*
G01*
X-10215290Y-23620960D01*
G01*
X-10218392Y-23626283D01*
G01*
X-10221362Y-23631679D01*
G01*
X-10224199Y-23637148D01*
G01*
X-10226901Y-23642684D01*
G01*
X-10229467Y-23648284D01*
G01*
X-10231894Y-23653946D01*
G01*
X-10234181Y-23659666D01*
G01*
X-10236328Y-23665441D01*
G01*
X-10238332Y-23671266D01*
G01*
X-10240192Y-23677139D01*
G01*
X-10241908Y-23683055D01*
G01*
X-10243478Y-23689012D01*
G01*
X-10244901Y-23695006D01*
G01*
X-10246177Y-23701032D01*
G01*
X-10247305Y-23707089D01*
G01*
X-10248283Y-23713171D01*
G01*
X-10249112Y-23719275D01*
G01*
X-10249791Y-23725398D01*
G01*
X-10250320Y-23731535D01*
G01*
X-10250698Y-23737684D01*
G01*
X-10250924Y-23743840D01*
G01*
X-10251000Y-23750000D01*
G01*
X-10251000Y-23949684D01*
G01*
X-10251605Y-23950479D01*
G01*
X-10255214Y-23955472D01*
G01*
X-10258699Y-23960552D01*
G01*
X-10262058Y-23965716D01*
G01*
X-10265290Y-23970960D01*
G01*
X-10268392Y-23976283D01*
G01*
X-10271362Y-23981679D01*
G01*
X-10274199Y-23987148D01*
G01*
X-10276901Y-23992684D01*
G01*
X-10279467Y-23998284D01*
G01*
X-10281894Y-24003946D01*
G01*
X-10284181Y-24009666D01*
G01*
X-10286328Y-24015441D01*
G01*
X-10288332Y-24021266D01*
G01*
X-10290192Y-24027139D01*
G01*
X-10291908Y-24033055D01*
G01*
X-10293478Y-24039012D01*
G01*
X-10294901Y-24045006D01*
G01*
X-10296177Y-24051032D01*
G01*
X-10297305Y-24057089D01*
G01*
X-10298283Y-24063171D01*
G01*
X-10299112Y-24069275D01*
G01*
X-10299791Y-24075398D01*
G01*
X-10300320Y-24081535D01*
G01*
X-10300698Y-24087684D01*
G01*
X-10300924Y-24093840D01*
G01*
X-10301000Y-24100000D01*
G01*
X-10301000Y-24999000D01*
G01*
X-11000000Y-24999000D01*
G01*
X-11000000Y-25000000D01*
G01*
X-11000000Y-25500000D01*
G01*
X-11000000Y-25501000D01*
G01*
X-10100000Y-25501000D01*
G01*
X-10093840Y-25500924D01*
G37*
D21*
G36*
X-01468146Y-22253472D02*
G01*
X-04875111Y-21512828D01*
G01*
X-05392426Y-20995513D01*
G01*
X-10390927Y-15697101D01*
G01*
X-10393969Y-15693969D01*
G01*
X-12093969Y-13993969D01*
G01*
X-12306031Y-14206031D01*
G01*
X-10607574Y-15904487D01*
G01*
X-05609073Y-21202899D01*
G01*
X-05606031Y-21206031D01*
G01*
X-05056031Y-21756031D01*
G01*
X-05053364Y-21758632D01*
G01*
X-05050634Y-21761165D01*
G01*
X-05047842Y-21763631D01*
G01*
X-05044989Y-21766026D01*
G01*
X-05042078Y-21768349D01*
G01*
X-05039110Y-21770600D01*
G01*
X-05036087Y-21772776D01*
G01*
X-05033011Y-21774877D01*
G01*
X-05029884Y-21776900D01*
G01*
X-05026707Y-21778845D01*
G01*
X-05023483Y-21780710D01*
G01*
X-05020214Y-21782495D01*
G01*
X-05016901Y-21784198D01*
G01*
X-05013548Y-21785819D01*
G01*
X-05010154Y-21787355D01*
G01*
X-05006724Y-21788807D01*
G01*
X-05003259Y-21790173D01*
G01*
X-04999761Y-21791453D01*
G01*
X-04996232Y-21792645D01*
G01*
X-04992675Y-21793749D01*
G01*
X-04989091Y-21794765D01*
G01*
X-04985483Y-21795691D01*
G01*
X-04981854Y-21796528D01*
G01*
X-01531854Y-22546528D01*
G01*
X-01468146Y-22253472D01*
G37*
D21*
G36*
X-19200361Y-01090346D02*
G01*
X-19399928Y002002935D01*
G01*
X-19301614Y005886325D01*
G01*
X-18693969Y006493969D01*
G01*
X-18906031Y006706031D01*
G01*
X-19556031Y006056031D01*
G01*
X-19558598Y006053399D01*
G01*
X-19561101Y006050706D01*
G01*
X-19563536Y006047952D01*
G01*
X-19565903Y006045139D01*
G01*
X-19568201Y006042269D01*
G01*
X-19570428Y006039343D01*
G01*
X-19572582Y006036364D01*
G01*
X-19574662Y006033332D01*
G01*
X-19576668Y006030251D01*
G01*
X-19578597Y006027122D01*
G01*
X-19580449Y006023946D01*
G01*
X-19582223Y006020725D01*
G01*
X-19583917Y006017462D01*
G01*
X-19585531Y006014159D01*
G01*
X-19587063Y006010817D01*
G01*
X-19588513Y006007438D01*
G01*
X-19589880Y006004025D01*
G01*
X-19591162Y006000580D01*
G01*
X-19592360Y005997104D01*
G01*
X-19593472Y005993599D01*
G01*
X-19594497Y005990069D01*
G01*
X-19595436Y005986514D01*
G01*
X-19596288Y005982938D01*
G01*
X-19597051Y005979341D01*
G01*
X-19597726Y005975727D01*
G01*
X-19598313Y005972098D01*
G01*
X-19598810Y005968455D01*
G01*
X-19599218Y005964801D01*
G01*
X-19599536Y005961138D01*
G01*
X-19599764Y005957469D01*
G01*
X-19599902Y005953795D01*
G01*
X-19699902Y002003795D01*
G01*
X-19699949Y002000431D01*
G01*
X-19699921Y001997067D01*
G01*
X-19699818Y001993705D01*
G01*
X-19699639Y001990346D01*
G01*
X-19499639Y-01109654D01*
G01*
X-19200361Y-01090346D01*
G37*
D21*
G36*
X-01245736Y-23100910D02*
G01*
X-01243230Y-23100773D01*
G01*
X-01240728Y-23100574D01*
G01*
X-01238232Y-23100312D01*
G01*
X-01235743Y-23099989D01*
G01*
X-01233263Y-23099604D01*
G01*
X-01230793Y-23099157D01*
G01*
X-01228335Y-23098649D01*
G01*
X-01225890Y-23098080D01*
G01*
X-01223461Y-23097451D01*
G01*
X-01221047Y-23096761D01*
G01*
X-01218652Y-23096012D01*
G01*
X-01216276Y-23095203D01*
G01*
X-01213921Y-23094336D01*
G01*
X-01211588Y-23093410D01*
G01*
X-01209279Y-23092427D01*
G01*
X-01206994Y-23091387D01*
G01*
X000493006Y-22291387D01*
G01*
X000495248Y-22290297D01*
G01*
X000497463Y-22289153D01*
G01*
X000499648Y-22287955D01*
G01*
X000501804Y-22286703D01*
G01*
X000503928Y-22285398D01*
G01*
X000506019Y-22284041D01*
G01*
X000508076Y-22282633D01*
G01*
X000510098Y-22281174D01*
G01*
X000512083Y-22279666D01*
G01*
X000514030Y-22278110D01*
G01*
X000515939Y-22276506D01*
G01*
X000517807Y-22274855D01*
G01*
X000519633Y-22273159D01*
G01*
X000521418Y-22271418D01*
G01*
X000771418Y-22021418D01*
G01*
X000773112Y-22019682D01*
G01*
X000774765Y-22017906D01*
G01*
X000776374Y-22016091D01*
G01*
X000777939Y-22014238D01*
G01*
X000779459Y-22012347D01*
G01*
X000780934Y-22010421D01*
G01*
X000782362Y-22008460D01*
G01*
X000783742Y-22006465D01*
G01*
X000785074Y-22004438D01*
G01*
X000786357Y-22002379D01*
G01*
X000787590Y-22000290D01*
G01*
X000788772Y-21998172D01*
G01*
X000789903Y-21996026D01*
G01*
X000790983Y-21993853D01*
G01*
X000792010Y-21991656D01*
G01*
X000792984Y-21989434D01*
G01*
X000793904Y-21987190D01*
G01*
X000794770Y-21984924D01*
G01*
X000795581Y-21982638D01*
G01*
X001494856Y-19934762D01*
G01*
X002936306Y-16256579D01*
G01*
X018021299Y-01221536D01*
G01*
X017878701Y-01078464D01*
G01*
X002778701Y-16128464D01*
G01*
X002776982Y-16130219D01*
G01*
X002775306Y-16132016D01*
G01*
X002773674Y-16133853D01*
G01*
X002772088Y-16135729D01*
G01*
X002770548Y-16137644D01*
G01*
X002769054Y-16139595D01*
G01*
X002767609Y-16141581D01*
G01*
X002766212Y-16143603D01*
G01*
X002764865Y-16145658D01*
G01*
X002763569Y-16147745D01*
G01*
X002762323Y-16149863D01*
G01*
X002761130Y-16152010D01*
G01*
X002759988Y-16154186D01*
G01*
X002758901Y-16156389D01*
G01*
X002757867Y-16158618D01*
G01*
X002756887Y-16160871D01*
G01*
X002755963Y-16163148D01*
G01*
X001305963Y-19863148D01*
G01*
X001305168Y-19865247D01*
G01*
X001304419Y-19867362D01*
G01*
X000611998Y-21895167D01*
G01*
X000391046Y-22116119D01*
G01*
X-01274594Y-22899949D01*
G01*
X-08354264Y-23199090D01*
G01*
X-08345736Y-23400910D01*
G01*
X-01245736Y-23100910D01*
G37*
%ADD27C,1.199998*%
D27*
X004325112Y-31074130D03*
X004325112Y-31074130D02*
X004325112Y-30474131D01*
X004325112Y-30474131D03*
D27*
X004325112Y-26994306D03*
X004325112Y-26994306D02*
X004325112Y-26194308D01*
X004325112Y-26194308D03*
D27*
X-04325112Y-26994306D03*
X-04325112Y-26994306D02*
X-04325112Y-26194308D01*
X-04325112Y-26194308D03*
D27*
X-04325112Y-31074130D03*
X-04325112Y-31074130D02*
X-04325112Y-30474131D01*
X-04325112Y-30474131D03*
D17*
X023999996Y025000000D03*
D17*
X022000000Y025000000D03*
D18*
X020000004Y025000000D03*
D21*
G36*
X-18199999Y009275000D02*
X-18199999Y010774997D01*
X-16800001Y010774997D01*
X-16800001Y009275000D01*
X-18199999Y009275000D01*
G37*
D22*
X-17500000Y008025002D03*
D26*
X-16608793Y-14912669D03*
D26*
X-18371862Y-12169216D03*
D26*
X020062809Y-28966910D03*
D26*
X-11500000Y-01700000D03*
D26*
X-09000000Y-02300000D03*
D26*
X-05700000Y-01800000D03*
D26*
X-09400000Y-01900000D03*
D26*
X-06000000Y-02300000D03*
D26*
X-12100000Y005600000D03*
D26*
X-07700000Y-05600000D03*
D26*
X-10700000Y-04800000D03*
D26*
X001900000Y-20300000D03*
D26*
X001400000Y-16800000D03*
D26*
X-15600000Y016100000D03*
D26*
X-18400000Y014700000D03*
D26*
X-04900000Y026000000D03*
D26*
X-01700000Y025900000D03*
D26*
X010000000Y-10200000D03*
D26*
X008100000Y-08300000D03*
D26*
X-02700000Y008400000D03*
D26*
X-02900000Y007700000D03*
D26*
X008500000Y-09500000D03*
D26*
X009600000Y-10600000D03*
D26*
X-06800000Y017300000D03*
D26*
X-19300000Y014900000D03*
D26*
X-20100000Y012500000D03*
D26*
X-21300000Y010500000D03*
D26*
X-20000000Y-07000000D03*
D26*
X-19200000Y-08200000D03*
D26*
X-21900000Y010500000D03*
D26*
X-20200000Y013100000D03*
D26*
X-19300000Y015500000D03*
D26*
X-05400000Y017200000D03*
D26*
X005200000Y-15000000D03*
D26*
X-00700000Y-13700000D03*
D26*
X-00100000Y-21800000D03*
D26*
X013200000Y001000000D03*
D26*
X011400000Y-06700000D03*
D26*
X013000000Y-10900000D03*
D26*
X004400000Y-01200000D03*
D26*
X016500000Y-10600000D03*
D26*
X010200000Y-12800000D03*
D26*
X007900000Y-10300000D03*
D26*
X001000000Y-03800000D03*
D26*
X-01600000Y-03300000D03*
D26*
X-13000000Y-03000000D03*
D26*
X-00200000Y-27700000D03*
D26*
X016500000Y-13700000D03*
D26*
X014700000Y-17300000D03*
D26*
X013400000Y-29200000D03*
D26*
X-05200000Y-19000000D03*
D26*
X-09300000Y-19000000D03*
D26*
X006750000Y-27500000D03*
D26*
X-04100000Y004250000D03*
D26*
X-09000000Y002150000D03*
D26*
X-05500000Y-15100000D03*
D26*
X009600000Y-15950000D03*
D26*
X011400000Y-15950000D03*
D26*
X005150000Y-08000000D03*
D26*
X-01250000Y-02650000D03*
D26*
X-08450000Y-01350000D03*
D26*
X-11400000Y004900000D03*
D26*
X-10550000Y004000000D03*
D26*
X-06249993Y-17000000D03*
D26*
X-17150000Y000450000D03*
D26*
X-15150000Y-00650000D03*
D26*
X-12350000Y-02300000D03*
D26*
X-01250000Y-01900000D03*
D26*
X005450000Y-06600000D03*
D26*
X011800000Y-16550000D03*
D26*
X003350000Y-16600000D03*
D26*
X-01700000Y012850000D03*
D26*
X-03150000Y013200000D03*
D26*
X-08350000Y-11150000D03*
D26*
X-02250000Y-09600000D03*
D26*
X001350000Y-15150000D03*
D26*
X-04600000Y014600000D03*
D26*
X-02600000Y013700000D03*
D26*
X-01000000Y013050000D03*
D26*
X000000000Y010150000D03*
D26*
X-04250000Y007400000D03*
D26*
X-12900000Y-21950000D03*
D26*
X-06650000Y-21150000D03*
D26*
X-07000000Y-20450000D03*
D26*
X-12200000Y-14100000D03*
D26*
X-19350000Y-01100000D03*
D26*
X-18800000Y006600000D03*
D26*
X-08350000Y-23300000D03*
D26*
X017950000Y-01150000D03*
D26*
X021727201Y-27628501D03*
D26*
X-16667038Y-28722740D03*
D26*
X-14400000Y-29700000D03*
D26*
X-15800000Y-30050000D03*
D26*
X-00350000Y015950000D03*
D26*
X-08950000Y011850000D03*
D26*
X-10600000Y006600000D03*
D26*
X-14950000Y006300000D03*
D26*
X-17050000Y-03750000D03*
D26*
X-16600000Y011300000D03*
D26*
X-10250000Y005950000D03*
D26*
X-10300000Y016250000D03*
D26*
X-19550046Y031169497D03*
D26*
X-02049954Y031169497D03*
D26*
X-11100076Y022049373D03*
D26*
X-03350000Y-14150000D03*
D26*
X-03950000Y-23950024D03*
D26*
X-02250000Y-14150024D03*
D26*
X-14450003Y004252095D03*
D26*
X-14950003Y005271582D03*
D26*
X-10100000Y002300000D03*
D26*
X-14699976Y007500000D03*
D26*
X-12700000Y005400000D03*
D26*
X017795000Y-03182051D03*
D26*
X017100000Y-05489254D03*
D26*
X-07899990Y-08050040D03*
D26*
X-11600010Y-10749960D03*
D26*
X-10800000Y-11100000D03*
D26*
X-11200024Y-05133975D03*
D26*
X-10900000Y009933975D03*
D26*
X-21950046Y029899497D03*
D26*
X-01400000Y007057180D03*
D26*
X-00753364Y025950000D03*
D26*
X-03700024Y009633975D03*
D26*
X-01500024Y-06500000D03*
D26*
X-09753364Y-29200000D03*
D26*
X-13500000Y-26053364D03*
D26*
X-00200024Y-20212436D03*
D26*
X-00200000Y-20800000D03*
D26*
X-01553364Y-11000000D03*
D26*
X012700000Y011600000D03*
D26*
X010400000Y009200000D03*
D26*
X014099901Y020492860D03*
D26*
X014200000Y017300000D03*
D26*
X-18700099Y-20642780D03*
D26*
X-22500024Y-16500000D03*
D26*
X021049508Y030400000D03*
D26*
X-20905978Y000557112D03*
D26*
X008135576Y023299997D03*
D26*
X004499976Y024500000D03*
D26*
X-05500000Y008900000D03*
D26*
X-08800000Y-28500000D03*
D26*
X-15549976Y-25383975D03*
D26*
X-12600010Y-09000000D03*
D26*
X-10100000Y008300000D03*
D26*
X004000000Y-24800000D03*
D26*
X-14900000Y010800000D03*
D26*
X014205000Y-02250000D03*
D26*
X001235050Y-01287564D03*
D26*
X013414335Y003300000D03*
D26*
X002499976Y-12000000D03*
D26*
X017803350Y-15000000D03*
D26*
X023400000Y-08000000D03*
D26*
X014300000Y-22642820D03*
D26*
X002199976Y-21844744D03*
D26*
X003883975Y-21700024D03*
D26*
X012753350Y-30800000D03*
D26*
X014246650Y-30550000D03*
D26*
X-17400000Y-26900000D03*
D26*
X-21500024Y-24750000D03*
D26*
X-19658620Y-23100000D03*
D26*
X-04100000Y008400000D03*
D26*
X009000000Y013492820D03*
D26*
X005475000Y005129050D03*
D26*
X005382180Y011270950D03*
D26*
X015962436Y014150024D03*
D26*
X002549976Y009866025D03*
D26*
X003000000Y010200000D03*
D26*
X013600000Y-06500000D03*
D26*
X016042594Y006600000D03*
D26*
X015100000Y-21950000D03*
D26*
X-18700000Y-03000000D03*
D26*
X017149998Y-08692820D03*
D26*
X003064950Y-02500000D03*
D26*
X005200024Y-11133975D03*
D26*
X023400000Y-11000000D03*
D26*
X006700000Y018600000D03*
D26*
X003699976Y014728719D03*
D26*
X-14100000Y002260746D03*
D26*
X009800000Y-29246636D03*
D26*
X-10753364Y-13200000D03*
D26*
X002500000Y022553364D03*
D26*
X-14700000Y-02000000D03*
D26*
X-06503350Y-13133975D03*
D26*
X-03749954Y013793471D03*
D26*
X000099508Y031800000D03*
D26*
X013848334Y-18750000D03*
D26*
X017300099Y020750000D03*
D26*
X-13905000Y016379591D03*
D26*
X009325000Y006529050D03*
D26*
X-19550046Y022279497D03*
D26*
X012496636Y-27383975D03*
D26*
X-19550046Y021009497D03*
D26*
X005196636Y-29000000D03*
D26*
X-19550046Y019739497D03*
D26*
X-13753350Y-19200000D03*
D26*
X-12635000Y016379591D03*
D26*
X008500000Y007100000D03*
D26*
X-11365000Y016579591D03*
D26*
X006000000Y007100000D03*
D26*
X007375000Y013870950D03*
D26*
X012696636Y006000000D03*
D26*
X-05069000Y024217000D03*
D26*
X-04700043Y-15000002D03*
D26*
X-05700024Y-22000000D03*
D26*
X-09269550Y-24200003D03*
D26*
X-12753364Y-28200000D03*
D26*
X-19550046Y028629497D03*
D26*
X005649508Y028000000D03*
D26*
X004849508Y026400000D03*
D26*
X-00753350Y005800000D03*
D26*
X-23001712Y028659497D03*
D26*
X-12139005Y-16950000D03*
D26*
X-11365000Y014579591D03*
D26*
X-03366025Y000253364D03*
D26*
X-10095000Y014579591D03*
D26*
X-01633975Y001746636D03*
D26*
X-12635000Y014579591D03*
D26*
X-03366025Y-02746636D03*
D26*
X-13905000Y014579591D03*
D26*
X-03366025Y-07253364D03*
D26*
X-14833876Y-17550040D03*
D26*
X-10860995Y-18800000D03*
D26*
X-18300099Y-18850040D03*
D26*
X-16246636Y-22800000D03*
D26*
X014966125Y-27150000D03*
D26*
X017133975Y-22503364D03*
D26*
X014966125Y-24850000D03*
D26*
X018800000Y-26503364D03*
D26*
X-07149937Y-28539227D03*
D26*
X-07380611Y-30500000D03*
D26*
X-06500003Y-27349935D03*
D26*
X-14000000Y-22880611D03*
D26*
X-00133975Y-04500000D03*
D26*
X-19364405Y024019497D03*
D26*
X014000000Y014700000D03*
D26*
X014600000Y014700000D03*
D26*
X016389005Y005300000D03*
D26*
X-19364405Y016399497D03*
D26*
X-09312196Y003100000D03*
D26*
X-11133975Y-24253350D03*
D26*
X016899900Y-25350000D03*
D26*
X008003364Y-29866025D03*
D26*
X-05855000Y016324077D03*
D26*
X-00619389Y018400000D03*
D26*
X-17600000Y-30600000D03*
D26*
X007375000Y003329050D03*
D26*
X017807174Y-29800127D03*
D26*
X015753350Y-30550000D03*
D26*
X014100000Y-04100000D03*
D26*
X-14900000Y008600000D03*
D26*
X018000000Y-07600000D03*
D26*
X008650000Y012100000D03*
D26*
X012996636Y-01450000D03*
D26*
X017099900Y-26650000D03*
D26*
X016700000Y-29000000D03*
D26*
X012950000Y-24550000D03*
D26*
X-13650000Y009400000D03*
D26*
X-03246650Y002000000D03*
D26*
X018499994Y-30300049D03*
D26*
X-14100000Y-00600000D03*
D26*
X-07003364Y-16800000D03*
D26*
X011900000Y-27800000D03*
D26*
X019350000Y-27350000D03*
D26*
X020014758Y-30700049D03*
D26*
X019500000Y-26800000D03*
D26*
X020707579Y-27699951D03*
D26*
X-09650000Y004900000D03*
D26*
X-18884052Y001700003D03*
D26*
X-15700000Y000700000D03*
D26*
X-05800000Y-29650000D03*
D26*
X-06350000Y-29800000D03*
D26*
X-16998539Y001100003D03*
D26*
X-03900043Y-13600002D03*
D26*
X-09246636Y-13200000D03*
D26*
X-14699901Y-16317989D03*
D26*
X013900000Y-12250000D03*
D26*
X013350000Y-15800000D03*
D26*
X-18800000Y005250000D03*
D26*
X-04168189Y005200000D03*
D26*
X011400000Y-05450000D03*
D26*
X015150000Y-21350000D03*
D26*
X-18700000Y-26050000D03*
D26*
X-01950000Y004250000D03*
D26*
X013200000Y-12850000D03*
D26*
X-01400000Y-28650000D03*
D26*
X-04600000Y-21050000D03*
D26*
X-04550000Y-13150000D03*
D26*
X-21950000Y023136000D03*
D26*
X-07900000Y-00882000D03*
D26*
X-04650000Y-18100000D03*
D26*
X-00249936Y-24225957D03*
D26*
X-22600000Y017150000D03*
D26*
X-00800000Y-26950000D03*
D26*
X010700000Y014200000D03*
D26*
X004250000Y-04350000D03*
D26*
X-11000000Y-25250000D03*
D26*
X009325000Y009500000D03*
D26*
X014200000Y009650000D03*
D26*
X008025000Y009470950D03*
D26*
X011000000Y006500000D03*
D26*
X-00950000Y-24600000D03*
D26*
X000250000Y-27000000D03*
D26*
X-01500000Y-22400000D03*
D26*
X-22600000Y017900000D03*
D26*
X-06200003Y-24730196D03*
D26*
X-08146636Y-20441154D03*
D26*
X-10300000Y-22800000D03*
D26*
X-14950000Y-29900000D03*
D26*
X-18050000Y-31200000D03*
D26*
X-18400000Y000350000D03*
D26*
X-18600000Y005800000D03*
D26*
X-16219109Y012279591D03*
D26*
X-08418045Y001335305D03*
D26*
X015298000Y028290000D03*
D26*
X-17900000Y-07500000D03*
D26*
X-16550000Y-05150000D03*
D10*
X-05353004Y-10245538D02*
X-05378941Y-10275059D01*
D10*
X-05378941Y-10275059D02*
X-05508161Y-10275059D01*
D10*
X-05508161Y-10275059D02*
X-05783220Y-10000000D01*
D10*
X-05783220Y-10000000D02*
X-07683000Y-10000000D01*
D10*
X-07683000Y-10000000D02*
X-07683000Y-13904416D01*
D10*
X-07683000Y-13904416D02*
X-04724234Y-16860953D01*
D10*
X-19550000Y026450000D02*
X-19565875Y026434125D01*
D10*
X-19565875Y026434125D02*
X005179250Y001689000D01*
D10*
X005179250Y001689000D02*
X017795000Y001689000D01*
D26*
X-05353004Y-10245538D03*
D26*
X-04724234Y-16860953D03*
D26*
X-19550000Y026450000D03*
D26*
X017795000Y001689000D03*
%LPC*%
D13*
X-02899918Y-27094433D03*
%LPD*%
%LPC*%
D13*
X002899918Y-27094433D03*
%LPD*%
%LPC*%
D23*
X-15484927Y-28750000D03*
%LPD*%
%LPC*%
D23*
X021265073Y-29000000D03*
%LPD*%
%LPC*%
D24*
X-22756164Y000499870D03*
%LPD*%
%LPC*%
D24*
X-22756164Y-02500124D03*
%LPD*%
%LPC*%
D25*
X022000000Y-23000000D03*
%LPD*%
%LPC*%
D25*
X-21500000Y-29500000D03*
%LPD*%
M02*