M48
; DRILL file {tscircuit} date 2026-10-09T05:48:25.907Z
; FORMAT={-:-/ absolute / metric / decimal}
; #@! TF.CreationDate,2026-10-09T05:48:25.907Z
; #@! TF.GenerationSoftware,tscircuit
; #@! TF.FileFunction,Plated,1,4,PTH
FMAT,2
METRIC
; #@! TA.AperFunction,Plated,PTH,ComponentDrill
T10C0.799998
; #@! TA.AperFunction,Plated,PTH,ComponentDrill
T11C0.900024
; #@! TA.AperFunction,Plated,PTH,ComponentDrill
T12C0.849986
; #@! TA.AperFunction,Plated,PTH,ComponentDrill
T13C0.300000
%
G90
G05
T10
X4.3251Y-31.0741G85X4.3251Y-30.4741
X4.3251Y-26.9943G85X4.3251Y-26.1943
X-4.3251Y-26.9943G85X-4.3251Y-26.1943
X-4.3251Y-31.0741G85X-4.3251Y-30.4741
T11
X24.0000Y25.0000
X22.0000Y25.0000
X20.0000Y25.0000
T12
X-17.5000Y10.0250
X-17.5000Y8.0250
T13
X-16.6088Y-14.9127
X-18.3719Y-12.1692
X20.0628Y-28.9669
X-11.5000Y-1.7000
X-9.0000Y-2.3000
X-5.7000Y-1.8000
X-9.4000Y-1.9000
X-6.0000Y-2.3000
X-12.1000Y5.6000
X-7.7000Y-5.6000
X-10.7000Y-4.8000
X1.9000Y-20.3000
X1.4000Y-16.8000
X-15.6000Y16.1000
X-18.4000Y14.7000
X-4.9000Y26.0000
X-1.7000Y25.9000
X10.0000Y-10.2000
X8.1000Y-8.3000
X-2.7000Y8.4000
X-2.9000Y7.7000
X8.5000Y-9.5000
X9.6000Y-10.6000
X-6.8000Y17.3000
X-19.3000Y14.9000
X-20.1000Y12.5000
X-21.3000Y10.5000
X-20.0000Y-7.0000
X-19.2000Y-8.2000
X-21.9000Y10.5000
X-20.2000Y13.1000
X-19.3000Y15.5000
X-5.4000Y17.2000
X5.2000Y-15.0000
X-0.7000Y-13.7000
X-0.1000Y-21.8000
X13.2000Y1.0000
X11.4000Y-6.7000
X13.0000Y-10.9000
X4.4000Y-1.2000
X16.5000Y-10.6000
X10.2000Y-12.8000
X7.9000Y-10.3000
X1.0000Y-3.8000
X-1.6000Y-3.3000
X-13.0000Y-3.0000
X-0.2000Y-27.7000
X16.5000Y-13.7000
X14.7000Y-17.3000
X13.4000Y-29.2000
X-5.2000Y-19.0000
X-9.3000Y-19.0000
X6.7500Y-27.5000
X-4.1000Y4.2500
X-9.0000Y2.1500
X-5.5000Y-15.1000
X9.6000Y-15.9500
X11.4000Y-15.9500
X5.1500Y-8.0000
X-1.2500Y-2.6500
X-8.4500Y-1.3500
X-11.4000Y4.9000
X-10.5500Y4.0000
X-6.2500Y-17.0000
X-17.1500Y0.4500
X-15.1500Y-0.6500
X-12.3500Y-2.3000
X-1.2500Y-1.9000
X5.4500Y-6.6000
X11.8000Y-16.5500
X3.3500Y-16.6000
X-1.7000Y12.8500
X-3.1500Y13.2000
X-8.3500Y-11.1500
X-2.2500Y-9.6000
X1.3500Y-15.1500
X-4.6000Y14.6000
X-2.6000Y13.7000
X-1.0000Y13.0500
X0.0000Y10.1500
X-4.2500Y7.4000
X-12.9000Y-21.9500
X-6.6500Y-21.1500
X-7.0000Y-20.4500
X-12.2000Y-14.1000
X-19.3500Y-1.1000
X-18.8000Y6.6000
X-8.3500Y-23.3000
X17.9500Y-1.1500
X21.7272Y-27.6285
X-16.6670Y-28.7227
X-14.4000Y-29.7000
X-15.8000Y-30.0500
X-0.3500Y15.9500
X-8.9500Y11.8500
X-10.6000Y6.6000
X-14.9500Y6.3000
X-17.0500Y-3.7500
X-16.6000Y11.3000
X-10.2500Y5.9500
X-10.3000Y16.2500
X-19.5500Y31.1695
X-2.0500Y31.1695
X-11.1001Y22.0494
X-3.3500Y-14.1500
X-3.9500Y-23.9500
X-2.2500Y-14.1500
X-14.4500Y4.2521
X-14.9500Y5.2716
X-10.1000Y2.3000
X-14.7000Y7.5000
X-12.7000Y5.4000
X17.7950Y-3.1821
X17.1000Y-5.4893
X-7.9000Y-8.0500
X-11.6000Y-10.7500
X-10.8000Y-11.1000
X-11.2000Y-5.1340
X-10.9000Y9.9340
X-21.9500Y29.8995
X-1.4000Y7.0572
X-0.7534Y25.9500
X-3.7000Y9.6340
X-1.5000Y-6.5000
X-9.7534Y-29.2000
X-13.5000Y-26.0534
X-0.2000Y-20.2124
X-0.2000Y-20.8000
X-1.5534Y-11.0000
X12.7000Y11.6000
X10.4000Y9.2000
X14.0999Y20.4929
X14.2000Y17.3000
X-18.7001Y-20.6428
X-22.5000Y-16.5000
X21.0495Y30.4000
X-20.9060Y0.5571
X8.1356Y23.3000
X4.5000Y24.5000
X-5.5000Y8.9000
X-8.8000Y-28.5000
X-15.5500Y-25.3840
X-12.6000Y-9.0000
X-10.1000Y8.3000
X4.0000Y-24.8000
X-14.9000Y10.8000
X14.2050Y-2.2500
X1.2350Y-1.2876
X13.4143Y3.3000
X2.5000Y-12.0000
X17.8034Y-15.0000
X23.4000Y-8.0000
X14.3000Y-22.6428
X2.2000Y-21.8447
X3.8840Y-21.7000
X12.7533Y-30.8000
X14.2467Y-30.5500
X-17.4000Y-26.9000
X-21.5000Y-24.7500
X-19.6586Y-23.1000
X-4.1000Y8.4000
X9.0000Y13.4928
X5.4750Y5.1290
X5.3822Y11.2709
X15.9624Y14.1500
X2.5500Y9.8660
X3.0000Y10.2000
X13.6000Y-6.5000
X16.0426Y6.6000
X15.1000Y-21.9500
X-18.7000Y-3.0000
X17.1500Y-8.6928
X3.0650Y-2.5000
X5.2000Y-11.1340
X23.4000Y-11.0000
X6.7000Y18.6000
X3.7000Y14.7287
X-14.1000Y2.2607
X9.8000Y-29.2466
X-10.7534Y-13.2000
X2.5000Y22.5534
X-14.7000Y-2.0000
X-6.5034Y-13.1340
X-3.7500Y13.7935
X0.0995Y31.8000
X13.8483Y-18.7500
X17.3001Y20.7500
X-13.9050Y16.3796
X9.3250Y6.5290
X-19.5500Y22.2795
X12.4966Y-27.3840
X-19.5500Y21.0095
X5.1966Y-29.0000
X-19.5500Y19.7395
X-13.7533Y-19.2000
X-12.6350Y16.3796
X8.5000Y7.1000
X-11.3650Y16.5796
X6.0000Y7.1000
X7.3750Y13.8710
X12.6966Y6.0000
X-5.0690Y24.2170
X-4.7000Y-15.0000
X-5.7000Y-22.0000
X-9.2696Y-24.2000
X-12.7534Y-28.2000
X-19.5500Y28.6295
X5.6495Y28.0000
X4.8495Y26.4000
X-0.7533Y5.8000
X-23.0017Y28.6595
X-12.1390Y-16.9500
X-11.3650Y14.5796
X-3.3660Y0.2534
X-10.0950Y14.5796
X-1.6340Y1.7466
X-12.6350Y14.5796
X-3.3660Y-2.7466
X-13.9050Y14.5796
X-3.3660Y-7.2534
X-14.8339Y-17.5500
X-10.8610Y-18.8000
X-18.3001Y-18.8500
X-16.2466Y-22.8000
X14.9661Y-27.1500
X17.1340Y-22.5034
X14.9661Y-24.8500
X18.8000Y-26.5034
X-7.1499Y-28.5392
X-7.3806Y-30.5000
X-6.5000Y-27.3499
X-14.0000Y-22.8806
X-0.1340Y-4.5000
X-19.3644Y24.0195
X14.0000Y14.7000
X14.6000Y14.7000
X16.3890Y5.3000
X-19.3644Y16.3995
X-9.3122Y3.1000
X-11.1340Y-24.2534
X16.8999Y-25.3500
X8.0034Y-29.8660
X-5.8550Y16.3241
X-0.6194Y18.4000
X-17.6000Y-30.6000
X7.3750Y3.3290
X17.8072Y-29.8001
X15.7533Y-30.5500
X14.1000Y-4.1000
X-14.9000Y8.6000
X18.0000Y-7.6000
X8.6500Y12.1000
X12.9966Y-1.4500
X17.0999Y-26.6500
X16.7000Y-29.0000
X12.9500Y-24.5500
X-13.6500Y9.4000
X-3.2466Y2.0000
X18.5000Y-30.3000
X-14.1000Y-0.6000
X-7.0034Y-16.8000
X11.9000Y-27.8000
X19.3500Y-27.3500
X20.0148Y-30.7000
X19.5000Y-26.8000
X20.7076Y-27.7000
X-9.6500Y4.9000
X-18.8841Y1.7000
X-15.7000Y0.7000
X-5.8000Y-29.6500
X-6.3500Y-29.8000
X-16.9985Y1.1000
X-3.9000Y-13.6000
X-9.2466Y-13.2000
X-14.6999Y-16.3180
X13.9000Y-12.2500
X13.3500Y-15.8000
X-18.8000Y5.2500
X-4.1682Y5.2000
X11.4000Y-5.4500
X15.1500Y-21.3500
X-18.7000Y-26.0500
X-1.9500Y4.2500
X13.2000Y-12.8500
X-1.4000Y-28.6500
X-4.6000Y-21.0500
X-4.5500Y-13.1500
X-21.9500Y23.1360
X-7.9000Y-0.8820
X-4.6500Y-18.1000
X-0.2499Y-24.2260
X-22.6000Y17.1500
X-0.8000Y-26.9500
X10.7000Y14.2000
X4.2500Y-4.3500
X-11.0000Y-25.2500
X9.3250Y9.5000
X14.2000Y9.6500
X8.0250Y9.4710
X11.0000Y6.5000
X-0.9500Y-24.6000
X0.2500Y-27.0000
X-1.5000Y-22.4000
X-22.6000Y17.9000
X-6.2000Y-24.7302
X-8.1466Y-20.4412
X-10.3000Y-22.8000
X-14.9500Y-29.9000
X-18.0500Y-31.2000
X-18.4000Y0.3500
X-18.6000Y5.8000
X-16.2191Y12.2796
X-8.4180Y1.3353
X15.2980Y28.2900
X-17.9000Y-7.5000
X-16.5500Y-5.1500
X-5.3530Y-10.2455
X-4.7242Y-16.8610
X-19.5500Y26.4500
X17.7950Y1.6890
M30