%TF.GenerationSoftware,tscircuit,circuit-json-to-gerber,0.0.111*%
%TF.CreationDate,2026-10-08T19:28:39.080Z*%
%TF.SameCoordinates,Original*%
%TF.FileFunction,Other,Fab,Top*%
%TF.FilePolarity,Positive*%
%FSLAX46Y46*%
%MOMM*%
G04 Gerber Fmt 4.6, Leading zero omitted, Abs format (unit mm)*
G04 Created by tscircuit (builder) date 2026-10-08T19:28:39.080Z*
G01*
%LPD*%
G75*
G04 APERTURE MACROS START*
%AMHORZPILL*
0 Horizontal pill (stadium) shape macro*
0 Parameters:*
0 $1 = Total width*
0 $2 = Total height*
0 $3 = Circle diameter (equal to height)*
0 $4 = Circle center offset
0 21 = Center Line(Exposure, Width, Height, Center X, Center Y, Rotation)*
0 1 = Circle(Exposure, Diameter, Center X, Center Y, Rotation)*
21,1,$1-$3,$2,0.0,0.0,0.0*
1,1,$3,0.0-$4,0.0*
1,1,$3,$4,0.0*%
%AMVERTPILL*
0 Vertical pill (stadium) shape macro*
0 Parameters:*
0 $1 = Total width*
0 $2 = Total height*
0 $3 = Circle diameter (equal to width)*
0 $4 = Circle center offset
0 21 = Center Line(Exposure, Width, Height, Center X, Center Y, Rotation)*
21,1,$1,$2-$3,0.0,0.0,0.0*
1,1,$3,0.0,0.0-$4*
1,1,$3,0.0,$4*%
%AMROUNDRECT*
0 Rectangle with rounded corners*
0 $1 Corner radius*
0 $2 $3 $4 $5 $6 $7 $8 $9 X,Y Position of each corner*
0 Polygon box body*
4,1,4,$2,$3,$4,$5,$6,$7,$8,$9,$2,$3,0*
0 Circles for rounded corners*
1,1,$1+$1,$2,$3*
1,1,$1+$1,$4,$5*
1,1,$1+$1,$6,$7*
1,1,$1+$1,$8,$9*
0 Rectangles between the rounded corners*
20,1,$1+$1,$2,$3,$4,$5,0*
20,1,$1+$1,$4,$5,$6,$7,0*
20,1,$1+$1,$6,$7,$8,$9,0*
20,1,$1+$1,$8,$9,$2,$3,0*%
G04 APERTURE MACROS END*
G04 aperture START LIST*
%ADD10C,0.300000*%
%ADD11C,0.297900*%
%ADD12C,0.275000*%
%ADD13C,0.280000*%
%ADD14C,1.000000*%
%ADD15C,0.800000*%
%ADD16C,0.200000*%
%ADD17C,0.400000*%
%ADD18C,0.360000*%
%ADD19C,0.700000*%
%ADD20C,0.270000*%
%ADD21C,0.600000*%
%ADD22C,0.254000*%
%TD*%
G04 aperture END LIST*
D22*
X-19239000Y037641493D02*
X-19255586Y037640401D01*
X-19271868Y037637175D01*
X-19287590Y037631816D01*
X-19302500Y037624475D01*
X-19316318Y037615255D01*
X-19328814Y037604307D01*
X-19339762Y037591811D01*
X-19348982Y037577993D01*
X-19356323Y037563083D01*
X-19361682Y037547361D01*
X-19364908Y037531079D01*
X-19366000Y037514493D01*
X-19366000Y033831493D01*
X-19364908Y033814907D01*
X-19361682Y033798625D01*
X-19356323Y033782903D01*
X-19348982Y033767993D01*
X-19339762Y033754175D01*
X-19328814Y033741679D01*
X-19316318Y033730731D01*
X-19302500Y033721511D01*
X-19287590Y033714170D01*
X-19271868Y033708811D01*
X-19255586Y033705585D01*
X-19239000Y033704493D01*
X-19222414Y033705585D01*
X-19206132Y033708811D01*
X-19190410Y033714170D01*
X-19175500Y033721511D01*
X-19161682Y033730731D01*
X-19149186Y033741679D01*
X-19138238Y033754175D01*
X-19129018Y033767993D01*
X-19121677Y033782903D01*
X-19116318Y033798625D01*
X-19113092Y033814907D01*
X-19112000Y033831493D01*
X-19112000Y037387493D01*
X-17080000Y037387493D01*
X-17080000Y035355493D01*
X-17078908Y035338907D01*
X-17075682Y035322625D01*
X-17070323Y035306903D01*
X-17062982Y035291993D01*
X-17053762Y035278175D01*
X-17042814Y035265679D01*
X-17030318Y035254731D01*
X-17016500Y035245511D01*
X-17001590Y035238170D01*
X-16985868Y035232811D01*
X-16969586Y035229585D01*
X-16953000Y035228493D01*
X-14667000Y035228493D01*
X-14650414Y035229585D01*
X-14634132Y035232811D01*
X-14618410Y035238170D01*
X-14603500Y035245511D01*
X-14589682Y035254731D01*
X-14577186Y035265679D01*
X-14566238Y035278175D01*
X-14557018Y035291993D01*
X-14549677Y035306903D01*
X-14544318Y035322625D01*
X-14541092Y035338907D01*
X-14540000Y035355493D01*
X-14540000Y037387493D01*
X-12254000Y037387493D01*
X-12254000Y035355493D01*
X-12252908Y035338907D01*
X-12249682Y035322625D01*
X-12244323Y035306903D01*
X-12236982Y035291993D01*
X-12227762Y035278175D01*
X-12216814Y035265679D01*
X-12204318Y035254731D01*
X-12190500Y035245511D01*
X-12175590Y035238170D01*
X-12159868Y035232811D01*
X-12143586Y035229585D01*
X-12127000Y035228493D01*
X-09587000Y035228493D01*
X-09570414Y035229585D01*
X-09554132Y035232811D01*
X-09538410Y035238170D01*
X-09523500Y035245511D01*
X-09509682Y035254731D01*
X-09497186Y035265679D01*
X-09486238Y035278175D01*
X-09477018Y035291993D01*
X-09469677Y035306903D01*
X-09464318Y035322625D01*
X-09461092Y035338907D01*
X-09460000Y035355493D01*
X-09460000Y037387493D01*
X-06938034Y037387493D01*
X-06861834Y037387493D01*
X-06861834Y032629895D01*
X-06860742Y032613309D01*
X-06857516Y032597028D01*
X-06852157Y032581305D01*
X-06844816Y032566395D01*
X-06835596Y032552578D01*
X-06824648Y032540081D01*
X-06812152Y032529133D01*
X-06798334Y032519913D01*
X-06783424Y032512573D01*
X-06767702Y032507213D01*
X-06751420Y032503987D01*
X-06734834Y032502895D01*
X-06718248Y032503987D01*
X-06701966Y032507213D01*
X-06686244Y032512573D01*
X-06671334Y032519913D01*
X-06657516Y032529133D01*
X-06645020Y032540081D01*
X-06634072Y032552578D01*
X-06624852Y032566395D01*
X-06617511Y032581305D01*
X-06612152Y032597028D01*
X-06608926Y032613309D01*
X-06607834Y032629895D01*
X-06607834Y037387493D01*
X-04829834Y037387493D01*
X-04829834Y032629895D01*
X-04828742Y032613309D01*
X-04825516Y032597028D01*
X-04820157Y032581305D01*
X-04812816Y032566395D01*
X-04803596Y032552578D01*
X-04792648Y032540081D01*
X-04780152Y032529133D01*
X-04766334Y032519913D01*
X-04751424Y032512573D01*
X-04735702Y032507213D01*
X-04719420Y032503987D01*
X-04702834Y032502895D01*
X-04686248Y032503987D01*
X-04669966Y032507213D01*
X-04654244Y032512573D01*
X-04639334Y032519913D01*
X-04625516Y032529133D01*
X-04613020Y032540081D01*
X-04602072Y032552578D01*
X-04592852Y032566395D01*
X-04585511Y032581305D01*
X-04580152Y032597028D01*
X-04576926Y032613309D01*
X-04575834Y032629895D01*
X-04575834Y037514493D01*
X-04576926Y037531079D01*
X-04580152Y037547361D01*
X-04585511Y037563083D01*
X-04592852Y037577993D01*
X-04602072Y037591811D01*
X-04613020Y037604307D01*
X-04625516Y037615255D01*
X-04639334Y037624475D01*
X-04654244Y037631816D01*
X-04669966Y037637175D01*
X-04686248Y037640401D01*
X-04702834Y037641493D01*
X-06734834Y037641493D01*
X-06938034Y037641493D01*
X-09587000Y037641493D01*
X-09603586Y037640401D01*
X-09619868Y037637175D01*
X-09635590Y037631816D01*
X-09650500Y037624475D01*
X-09664318Y037615255D01*
X-09676814Y037604307D01*
X-09687762Y037591811D01*
X-09696982Y037577993D01*
X-09704323Y037563083D01*
X-09709682Y037547361D01*
X-09712908Y037531079D01*
X-09714000Y037514493D01*
X-09714000Y035482493D01*
X-12000000Y035482493D01*
X-12000000Y037514493D01*
X-12001092Y037531079D01*
X-12004318Y037547361D01*
X-12009677Y037563083D01*
X-12017018Y037577993D01*
X-12026238Y037591811D01*
X-12037186Y037604307D01*
X-12049682Y037615255D01*
X-12063500Y037624475D01*
X-12078410Y037631816D01*
X-12094132Y037637175D01*
X-12110414Y037640401D01*
X-12127000Y037641493D01*
X-14667000Y037641493D01*
X-14683586Y037640401D01*
X-14699868Y037637175D01*
X-14715590Y037631816D01*
X-14730500Y037624475D01*
X-14744318Y037615255D01*
X-14756814Y037604307D01*
X-14767762Y037591811D01*
X-14776982Y037577993D01*
X-14784323Y037563083D01*
X-14789682Y037547361D01*
X-14792908Y037531079D01*
X-14794000Y037514493D01*
X-14794000Y035482493D01*
X-16826000Y035482493D01*
X-16826000Y037514493D01*
X-16827092Y037531079D01*
X-16830318Y037547361D01*
X-16835677Y037563083D01*
X-16843018Y037577993D01*
X-16852238Y037591811D01*
X-16863186Y037604307D01*
X-16875682Y037615255D01*
X-16889500Y037624475D01*
X-16904410Y037631816D01*
X-16920132Y037637175D01*
X-16936414Y037640401D01*
X-16953000Y037641493D01*
X-19239000Y037641493D01*
D22*
X018000008Y019599985D02*
X018000008Y018799987D01*
X018100008Y018699987D01*
X025899992Y018699987D01*
X025999992Y018799987D01*
X025999992Y019399986D01*
X025899992Y019399986D01*
X025899992Y018799987D01*
X018100008Y018799987D01*
X018100008Y019599985D01*
X018000008Y019599985D01*
D22*
X-23800013Y012224994D02*
X-19599996Y012224994D01*
X-23800013Y012224994D01*
D22*
X-24156035Y-01099974D02*
X-25605994Y-01099974D01*
X-25605994Y-02499972D01*
X-24005997Y-02499972D01*
X-24005997Y-02299972D01*
X-25405994Y-02299972D01*
X-25405994Y-01299974D01*
X-24005997Y-01299974D01*
X-24005997Y-01099974D01*
X-24156035Y-01099974D01*
D22*
X-24610999Y-00784989D02*
X-24981001Y-00784989D01*
X-24981001Y000434998D01*
X-25250978Y000434998D01*
X-25250978Y000435024D01*
X-24781002Y000905000D01*
X-24381002Y000434998D01*
X-24620982Y000434998D01*
X-24610999Y-00784989D01*
M02*